<mxfile host="Electron" modified="2024-01-17T15:26:33.328Z" agent="Mozilla/5.0 (X11; Linux x86_64) AppleWebKit/537.36 (KHTML, like Gecko) draw.io/21.1.2 Chrome/106.0.5249.199 Electron/21.4.3 Safari/537.36" etag="qHmmGgcxwbtllsKeEeBv" version="21.1.2" type="device">
  <diagram name="Page-1" id="amy6pQFvX8r8L1cMmpqH">
    <mxGraphModel dx="4176" dy="1064" grid="0" gridSize="10" guides="1" tooltips="1" connect="1" arrows="1" fold="1" page="1" pageScale="1" pageWidth="1169" pageHeight="1654" math="0" shadow="0">
      <root>
        <mxCell id="0" />
        <mxCell id="1" parent="0" />
        <mxCell id="KpYmoEpn27h0bMTAHkpe-18" value="" style="rounded=1;whiteSpace=wrap;html=1;fillColor=none;strokeColor=#9673a6;gradientDirection=north;gradientColor=default;" parent="1" vertex="1">
          <mxGeometry x="-551" y="205.5" width="115" height="136" as="geometry" />
        </mxCell>
        <mxCell id="KpYmoEpn27h0bMTAHkpe-16" value="" style="rounded=1;whiteSpace=wrap;html=1;fillColor=none;strokeColor=#82b366;gradientDirection=north;gradientColor=default;" parent="1" vertex="1">
          <mxGeometry x="-816" y="197" width="202" height="159" as="geometry" />
        </mxCell>
        <mxCell id="KpYmoEpn27h0bMTAHkpe-9" value="" style="rounded=1;whiteSpace=wrap;html=1;fillColor=none;strokeColor=#d79b00;gradientColor=#FFCE9F;gradientDirection=north;" parent="1" vertex="1">
          <mxGeometry x="-1918" y="88.75" width="612" height="361.5" as="geometry" />
        </mxCell>
        <mxCell id="KpYmoEpn27h0bMTAHkpe-14" value="" style="rounded=1;whiteSpace=wrap;html=1;fillColor=none;strokeColor=#6c8ebf;gradientDirection=north;gradientColor=default;" parent="1" vertex="1">
          <mxGeometry x="-1292.5" y="93.25" width="411.5" height="361.5" as="geometry" />
        </mxCell>
        <mxCell id="Sj2925MPbV6JyILS4WiL-18" style="edgeStyle=orthogonalEdgeStyle;rounded=0;orthogonalLoop=1;jettySize=auto;html=1;entryX=0;entryY=0.5;entryDx=0;entryDy=0;" parent="1" source="Sj2925MPbV6JyILS4WiL-1" target="Sj2925MPbV6JyILS4WiL-2" edge="1">
          <mxGeometry relative="1" as="geometry" />
        </mxCell>
        <mxCell id="Sj2925MPbV6JyILS4WiL-1" value="" style="rounded=0;whiteSpace=wrap;html=1;fillColor=#ffe6cc;strokeColor=#d79b00;" parent="1" vertex="1">
          <mxGeometry x="-1909" y="204" width="70" height="140" as="geometry" />
        </mxCell>
        <mxCell id="KpYmoEpn27h0bMTAHkpe-7" style="edgeStyle=orthogonalEdgeStyle;rounded=0;orthogonalLoop=1;jettySize=auto;html=1;entryX=-0.012;entryY=0.567;entryDx=0;entryDy=0;entryPerimeter=0;" parent="1" source="Sj2925MPbV6JyILS4WiL-2" target="KpYmoEpn27h0bMTAHkpe-1" edge="1">
          <mxGeometry relative="1" as="geometry" />
        </mxCell>
        <mxCell id="Sj2925MPbV6JyILS4WiL-2" value="&lt;div&gt;Data&lt;/div&gt;&lt;div&gt;Reader&lt;/div&gt;" style="rounded=0;whiteSpace=wrap;html=1;fillColor=#ffe6cc;strokeColor=#d79b00;" parent="1" vertex="1">
          <mxGeometry x="-1802" y="239" width="100" height="70" as="geometry" />
        </mxCell>
        <mxCell id="Sj2925MPbV6JyILS4WiL-3" value="&lt;div&gt;Raw Data&lt;/div&gt;&lt;div&gt;Filter&lt;br&gt;&lt;/div&gt;" style="rounded=0;whiteSpace=wrap;html=1;fillColor=#ffe6cc;strokeColor=#d79b00;" parent="1" vertex="1">
          <mxGeometry x="-1653" y="231.5" width="100" height="70" as="geometry" />
        </mxCell>
        <mxCell id="Sj2925MPbV6JyILS4WiL-4" value="&lt;div&gt;Time&lt;/div&gt;&lt;div&gt;Sync&lt;/div&gt;" style="rounded=0;whiteSpace=wrap;html=1;fillColor=#ffe6cc;strokeColor=#d79b00;" parent="1" vertex="1">
          <mxGeometry x="-1543" y="231.5" width="100" height="70" as="geometry" />
        </mxCell>
        <mxCell id="Our_2A3Br8wd2iKmhFW6-61" style="edgeStyle=orthogonalEdgeStyle;rounded=0;orthogonalLoop=1;jettySize=auto;html=1;exitX=1;exitY=0.5;exitDx=0;exitDy=0;" parent="1" source="Sj2925MPbV6JyILS4WiL-5" target="SyLNdEtbc1PO9mZHytDg-17" edge="1">
          <mxGeometry relative="1" as="geometry">
            <mxPoint x="-1253" y="274" as="targetPoint" />
          </mxGeometry>
        </mxCell>
        <mxCell id="Our_2A3Br8wd2iKmhFW6-67" style="edgeStyle=orthogonalEdgeStyle;rounded=0;orthogonalLoop=1;jettySize=auto;html=1;exitX=1;exitY=0.5;exitDx=0;exitDy=0;entryX=0;entryY=0.5;entryDx=0;entryDy=0;" parent="1" source="Sj2925MPbV6JyILS4WiL-5" target="Sj2925MPbV6JyILS4WiL-40" edge="1">
          <mxGeometry relative="1" as="geometry">
            <Array as="points">
              <mxPoint x="-1254" y="274" />
              <mxPoint x="-1254" y="134" />
            </Array>
          </mxGeometry>
        </mxCell>
        <mxCell id="SyLNdEtbc1PO9mZHytDg-24" style="edgeStyle=orthogonalEdgeStyle;rounded=0;orthogonalLoop=1;jettySize=auto;html=1;entryX=0;entryY=0.5;entryDx=0;entryDy=0;" parent="1" source="Sj2925MPbV6JyILS4WiL-5" target="Sj2925MPbV6JyILS4WiL-36" edge="1">
          <mxGeometry relative="1" as="geometry">
            <Array as="points">
              <mxPoint x="-1254" y="274" />
              <mxPoint x="-1254" y="398" />
            </Array>
          </mxGeometry>
        </mxCell>
        <mxCell id="Sj2925MPbV6JyILS4WiL-5" value="" style="rounded=0;whiteSpace=wrap;html=1;fillColor=#ffe6cc;strokeColor=#d79b00;" parent="1" vertex="1">
          <mxGeometry x="-1402" y="164" width="70" height="220" as="geometry" />
        </mxCell>
        <mxCell id="Sj2925MPbV6JyILS4WiL-6" value="" style="endArrow=none;html=1;rounded=0;entryX=0.99;entryY=0.188;entryDx=0;entryDy=0;entryPerimeter=0;exitX=0.005;exitY=0.191;exitDx=0;exitDy=0;exitPerimeter=0;" parent="1" source="Sj2925MPbV6JyILS4WiL-5" target="Sj2925MPbV6JyILS4WiL-5" edge="1">
          <mxGeometry width="50" height="50" relative="1" as="geometry">
            <mxPoint x="-1532" y="274" as="sourcePoint" />
            <mxPoint x="-1322" y="204" as="targetPoint" />
          </mxGeometry>
        </mxCell>
        <mxCell id="Sj2925MPbV6JyILS4WiL-10" value="" style="endArrow=none;html=1;rounded=0;entryX=0.99;entryY=0.188;entryDx=0;entryDy=0;entryPerimeter=0;exitX=0.005;exitY=0.191;exitDx=0;exitDy=0;exitPerimeter=0;" parent="1" edge="1">
          <mxGeometry width="50" height="50" relative="1" as="geometry">
            <mxPoint x="-1401.5" y="235" as="sourcePoint" />
            <mxPoint x="-1332.5" y="234" as="targetPoint" />
          </mxGeometry>
        </mxCell>
        <mxCell id="Sj2925MPbV6JyILS4WiL-11" value="" style="endArrow=none;html=1;rounded=0;entryX=0.99;entryY=0.188;entryDx=0;entryDy=0;entryPerimeter=0;exitX=0.005;exitY=0.191;exitDx=0;exitDy=0;exitPerimeter=0;" parent="1" edge="1">
          <mxGeometry width="50" height="50" relative="1" as="geometry">
            <mxPoint x="-1402" y="265" as="sourcePoint" />
            <mxPoint x="-1333" y="264" as="targetPoint" />
          </mxGeometry>
        </mxCell>
        <mxCell id="Sj2925MPbV6JyILS4WiL-12" value="" style="endArrow=none;html=1;rounded=0;entryX=0.99;entryY=0.188;entryDx=0;entryDy=0;entryPerimeter=0;exitX=0.005;exitY=0.191;exitDx=0;exitDy=0;exitPerimeter=0;" parent="1" edge="1">
          <mxGeometry width="50" height="50" relative="1" as="geometry">
            <mxPoint x="-1402" y="295" as="sourcePoint" />
            <mxPoint x="-1333" y="294" as="targetPoint" />
          </mxGeometry>
        </mxCell>
        <mxCell id="Sj2925MPbV6JyILS4WiL-13" value="" style="endArrow=none;html=1;rounded=0;entryX=0.99;entryY=0.188;entryDx=0;entryDy=0;entryPerimeter=0;exitX=0.005;exitY=0.191;exitDx=0;exitDy=0;exitPerimeter=0;" parent="1" edge="1">
          <mxGeometry width="50" height="50" relative="1" as="geometry">
            <mxPoint x="-1402" y="325" as="sourcePoint" />
            <mxPoint x="-1333" y="324" as="targetPoint" />
          </mxGeometry>
        </mxCell>
        <mxCell id="Sj2925MPbV6JyILS4WiL-14" value="" style="endArrow=none;html=1;rounded=0;entryX=0.99;entryY=0.188;entryDx=0;entryDy=0;entryPerimeter=0;exitX=0.005;exitY=0.191;exitDx=0;exitDy=0;exitPerimeter=0;" parent="1" edge="1">
          <mxGeometry width="50" height="50" relative="1" as="geometry">
            <mxPoint x="-1402" y="355" as="sourcePoint" />
            <mxPoint x="-1333" y="354" as="targetPoint" />
          </mxGeometry>
        </mxCell>
        <mxCell id="Sj2925MPbV6JyILS4WiL-15" value="" style="endArrow=none;html=1;rounded=0;entryX=0.99;entryY=0.188;entryDx=0;entryDy=0;entryPerimeter=0;exitX=0.005;exitY=0.191;exitDx=0;exitDy=0;exitPerimeter=0;" parent="1" edge="1">
          <mxGeometry width="50" height="50" relative="1" as="geometry">
            <mxPoint x="-1402" y="185" as="sourcePoint" />
            <mxPoint x="-1333" y="184" as="targetPoint" />
          </mxGeometry>
        </mxCell>
        <mxCell id="Sj2925MPbV6JyILS4WiL-17" style="edgeStyle=orthogonalEdgeStyle;rounded=0;orthogonalLoop=1;jettySize=auto;html=1;entryX=0.5;entryY=0;entryDx=0;entryDy=0;" parent="1" source="Sj2925MPbV6JyILS4WiL-16" target="Sj2925MPbV6JyILS4WiL-2" edge="1">
          <mxGeometry relative="1" as="geometry">
            <mxPoint x="-1752" y="199" as="targetPoint" />
          </mxGeometry>
        </mxCell>
        <mxCell id="Sj2925MPbV6JyILS4WiL-16" value="&lt;div&gt;Memory&lt;/div&gt;&lt;div&gt;Analyzer&lt;br&gt;&lt;/div&gt;" style="rounded=0;whiteSpace=wrap;html=1;fillColor=#ffe6cc;strokeColor=#d79b00;" parent="1" vertex="1">
          <mxGeometry x="-1802" y="129" width="100" height="50" as="geometry" />
        </mxCell>
        <mxCell id="Sj2925MPbV6JyILS4WiL-27" value="Batch" style="text;html=1;strokeColor=none;fillColor=none;align=center;verticalAlign=middle;whiteSpace=wrap;rounded=0;" parent="1" vertex="1">
          <mxGeometry x="-1402" y="129" width="60" height="30" as="geometry" />
        </mxCell>
        <mxCell id="Sj2925MPbV6JyILS4WiL-35" style="edgeStyle=orthogonalEdgeStyle;rounded=0;orthogonalLoop=1;jettySize=auto;html=1;entryX=0;entryY=0.5;entryDx=0;entryDy=0;" parent="1" source="Sj2925MPbV6JyILS4WiL-32" target="Sj2925MPbV6JyILS4WiL-34" edge="1">
          <mxGeometry relative="1" as="geometry" />
        </mxCell>
        <mxCell id="Our_2A3Br8wd2iKmhFW6-68" style="edgeStyle=orthogonalEdgeStyle;rounded=0;orthogonalLoop=1;jettySize=auto;html=1;exitX=0.5;exitY=1;exitDx=0;exitDy=0;entryX=0.5;entryY=1;entryDx=0;entryDy=0;" parent="1" source="Sj2925MPbV6JyILS4WiL-32" target="Sj2925MPbV6JyILS4WiL-36" edge="1">
          <mxGeometry relative="1" as="geometry">
            <Array as="points">
              <mxPoint x="-709" y="477" />
              <mxPoint x="-1170" y="477" />
            </Array>
          </mxGeometry>
        </mxCell>
        <mxCell id="Our_2A3Br8wd2iKmhFW6-73" style="edgeStyle=orthogonalEdgeStyle;rounded=0;orthogonalLoop=1;jettySize=auto;html=1;exitX=0.5;exitY=0;exitDx=0;exitDy=0;entryX=1;entryY=0.5;entryDx=0;entryDy=0;" parent="1" source="Sj2925MPbV6JyILS4WiL-32" target="Sj2925MPbV6JyILS4WiL-40" edge="1">
          <mxGeometry relative="1" as="geometry" />
        </mxCell>
        <mxCell id="SyLNdEtbc1PO9mZHytDg-31" style="edgeStyle=orthogonalEdgeStyle;rounded=0;orthogonalLoop=1;jettySize=auto;html=1;entryX=1;entryY=0.5;entryDx=0;entryDy=0;exitX=0.5;exitY=1;exitDx=0;exitDy=0;" parent="1" source="Sj2925MPbV6JyILS4WiL-32" target="SyLNdEtbc1PO9mZHytDg-28" edge="1">
          <mxGeometry relative="1" as="geometry" />
        </mxCell>
        <mxCell id="Sj2925MPbV6JyILS4WiL-32" value="Solver" style="rounded=0;whiteSpace=wrap;html=1;fillColor=#d5e8d4;strokeColor=#82b366;" parent="1" vertex="1">
          <mxGeometry x="-759" y="239.5" width="100" height="70" as="geometry" />
        </mxCell>
        <mxCell id="Sj2925MPbV6JyILS4WiL-34" value="Map" style="rounded=0;whiteSpace=wrap;html=1;fillColor=#e1d5e7;strokeColor=#9673a6;" parent="1" vertex="1">
          <mxGeometry x="-527" y="244" width="70" height="60" as="geometry" />
        </mxCell>
        <mxCell id="SyLNdEtbc1PO9mZHytDg-40" style="edgeStyle=orthogonalEdgeStyle;rounded=0;orthogonalLoop=1;jettySize=auto;html=1;entryX=0.5;entryY=1;entryDx=0;entryDy=0;" parent="1" source="Sj2925MPbV6JyILS4WiL-36" target="SyLNdEtbc1PO9mZHytDg-34" edge="1">
          <mxGeometry relative="1" as="geometry">
            <Array as="points">
              <mxPoint x="-1099.5" y="398" />
            </Array>
          </mxGeometry>
        </mxCell>
        <mxCell id="Sj2925MPbV6JyILS4WiL-36" value="Loop&lt;br&gt;Detector" style="rounded=0;whiteSpace=wrap;html=1;fillColor=#dae8fc;strokeColor=#6c8ebf;" parent="1" vertex="1">
          <mxGeometry x="-1220.5" y="363" width="100" height="70" as="geometry" />
        </mxCell>
        <mxCell id="Sj2925MPbV6JyILS4WiL-40" value="&lt;div&gt;Anomaly&lt;/div&gt;&lt;div&gt;Detector&lt;br&gt;&lt;/div&gt;" style="rounded=0;whiteSpace=wrap;html=1;fillColor=#dae8fc;strokeColor=#6c8ebf;" parent="1" vertex="1">
          <mxGeometry x="-1149.5" y="99" width="100" height="70" as="geometry" />
        </mxCell>
        <mxCell id="Our_2A3Br8wd2iKmhFW6-84" style="edgeStyle=orthogonalEdgeStyle;orthogonalLoop=1;jettySize=auto;html=1;exitX=0.5;exitY=1;exitDx=0;exitDy=0;entryX=0.5;entryY=0;entryDx=0;entryDy=0;" parent="1" source="Sj2925MPbV6JyILS4WiL-57" target="Sj2925MPbV6JyILS4WiL-58" edge="1">
          <mxGeometry relative="1" as="geometry" />
        </mxCell>
        <mxCell id="Our_2A3Br8wd2iKmhFW6-85" style="edgeStyle=orthogonalEdgeStyle;orthogonalLoop=1;jettySize=auto;html=1;exitX=0.5;exitY=1;exitDx=0;exitDy=0;entryX=0.5;entryY=0;entryDx=0;entryDy=0;" parent="1" source="Sj2925MPbV6JyILS4WiL-57" target="Sj2925MPbV6JyILS4WiL-59" edge="1">
          <mxGeometry relative="1" as="geometry" />
        </mxCell>
        <mxCell id="Our_2A3Br8wd2iKmhFW6-86" style="edgeStyle=orthogonalEdgeStyle;orthogonalLoop=1;jettySize=auto;html=1;exitX=0.5;exitY=1;exitDx=0;exitDy=0;entryX=0.5;entryY=0;entryDx=0;entryDy=0;" parent="1" source="Sj2925MPbV6JyILS4WiL-57" target="Sj2925MPbV6JyILS4WiL-60" edge="1">
          <mxGeometry relative="1" as="geometry" />
        </mxCell>
        <mxCell id="Our_2A3Br8wd2iKmhFW6-87" style="edgeStyle=orthogonalEdgeStyle;orthogonalLoop=1;jettySize=auto;html=1;exitX=0.5;exitY=1;exitDx=0;exitDy=0;entryX=0.5;entryY=0;entryDx=0;entryDy=0;" parent="1" source="Sj2925MPbV6JyILS4WiL-57" target="Sj2925MPbV6JyILS4WiL-61" edge="1">
          <mxGeometry relative="1" as="geometry" />
        </mxCell>
        <mxCell id="Sj2925MPbV6JyILS4WiL-57" value="Main manager" style="rounded=0;whiteSpace=wrap;html=1;fillColor=#1ba1e2;fontColor=#ffffff;strokeColor=#006EAF;" parent="1" vertex="1">
          <mxGeometry x="-2035.88" y="828" width="120" height="60" as="geometry" />
        </mxCell>
        <mxCell id="Our_2A3Br8wd2iKmhFW6-7" style="edgeStyle=orthogonalEdgeStyle;rounded=0;orthogonalLoop=1;jettySize=auto;html=1;exitX=1;exitY=0.5;exitDx=0;exitDy=0;entryX=0;entryY=0.5;entryDx=0;entryDy=0;" parent="1" source="Sj2925MPbV6JyILS4WiL-58" target="Sj2925MPbV6JyILS4WiL-59" edge="1">
          <mxGeometry relative="1" as="geometry" />
        </mxCell>
        <mxCell id="Sj2925MPbV6JyILS4WiL-58" value="&lt;div&gt;Data&lt;/div&gt;&lt;div&gt;Manager&lt;br&gt;&lt;/div&gt;" style="rounded=0;whiteSpace=wrap;html=1;fillColor=#ffe6cc;strokeColor=#d79b00;" parent="1" vertex="1">
          <mxGeometry x="-2235.88" y="978" width="100" height="70" as="geometry" />
        </mxCell>
        <mxCell id="Our_2A3Br8wd2iKmhFW6-8" style="edgeStyle=orthogonalEdgeStyle;rounded=0;orthogonalLoop=1;jettySize=auto;html=1;exitX=1;exitY=0.5;exitDx=0;exitDy=0;entryX=0;entryY=0.5;entryDx=0;entryDy=0;" parent="1" source="Sj2925MPbV6JyILS4WiL-59" target="Sj2925MPbV6JyILS4WiL-60" edge="1">
          <mxGeometry relative="1" as="geometry" />
        </mxCell>
        <mxCell id="Sj2925MPbV6JyILS4WiL-59" value="Frontend Manager" style="rounded=0;whiteSpace=wrap;html=1;fillColor=#dae8fc;strokeColor=#6c8ebf;" parent="1" vertex="1">
          <mxGeometry x="-2095.88" y="978" width="100" height="70" as="geometry" />
        </mxCell>
        <mxCell id="Our_2A3Br8wd2iKmhFW6-9" style="edgeStyle=orthogonalEdgeStyle;rounded=0;orthogonalLoop=1;jettySize=auto;html=1;exitX=1;exitY=0.5;exitDx=0;exitDy=0;entryX=0;entryY=0.5;entryDx=0;entryDy=0;" parent="1" source="Sj2925MPbV6JyILS4WiL-60" target="Sj2925MPbV6JyILS4WiL-61" edge="1">
          <mxGeometry relative="1" as="geometry" />
        </mxCell>
        <mxCell id="Sj2925MPbV6JyILS4WiL-60" value="&lt;div&gt;Backend&amp;nbsp;&lt;/div&gt;&lt;div&gt;Manager&lt;/div&gt;" style="rounded=0;whiteSpace=wrap;html=1;fillColor=#d5e8d4;strokeColor=#82b366;" parent="1" vertex="1">
          <mxGeometry x="-1955.88" y="978" width="100" height="70" as="geometry" />
        </mxCell>
        <mxCell id="Sj2925MPbV6JyILS4WiL-61" value="&lt;div&gt;Map&lt;/div&gt;&lt;div&gt;Manager&lt;br&gt;&lt;/div&gt;" style="rounded=0;whiteSpace=wrap;html=1;fillColor=#e1d5e7;strokeColor=#9673a6;" parent="1" vertex="1">
          <mxGeometry x="-1815.88" y="978" width="100" height="70" as="geometry" />
        </mxCell>
        <mxCell id="PIaccMXLNr0q7VpcvSsv-3" value="&lt;div&gt;Setup&lt;/div&gt;&lt;div&gt;Manager&lt;br&gt;&lt;/div&gt;" style="rounded=0;whiteSpace=wrap;html=1;fillColor=#fff2cc;strokeColor=#d6b656;" parent="1" vertex="1">
          <mxGeometry x="-2205.88" y="823" width="100" height="70" as="geometry" />
        </mxCell>
        <mxCell id="KpYmoEpn27h0bMTAHkpe-23" style="edgeStyle=orthogonalEdgeStyle;rounded=0;orthogonalLoop=1;jettySize=auto;html=1;entryX=0;entryY=0;entryDx=0;entryDy=55;entryPerimeter=0;" parent="1" source="Our_2A3Br8wd2iKmhFW6-23" target="Our_2A3Br8wd2iKmhFW6-35" edge="1">
          <mxGeometry relative="1" as="geometry">
            <Array as="points">
              <mxPoint x="-1880.88" y="1253" />
              <mxPoint x="-2145.88" y="1253" />
            </Array>
          </mxGeometry>
        </mxCell>
        <mxCell id="KpYmoEpn27h0bMTAHkpe-24" style="edgeStyle=orthogonalEdgeStyle;rounded=0;orthogonalLoop=1;jettySize=auto;html=1;entryX=0;entryY=0;entryDx=0;entryDy=79.5;entryPerimeter=0;" parent="1" source="Our_2A3Br8wd2iKmhFW6-23" target="Our_2A3Br8wd2iKmhFW6-24" edge="1">
          <mxGeometry relative="1" as="geometry" />
        </mxCell>
        <mxCell id="KpYmoEpn27h0bMTAHkpe-25" style="edgeStyle=orthogonalEdgeStyle;rounded=0;orthogonalLoop=1;jettySize=auto;html=1;entryX=0;entryY=0;entryDx=0;entryDy=64.5;entryPerimeter=0;" parent="1" source="Our_2A3Br8wd2iKmhFW6-23" target="Our_2A3Br8wd2iKmhFW6-27" edge="1">
          <mxGeometry relative="1" as="geometry" />
        </mxCell>
        <mxCell id="KpYmoEpn27h0bMTAHkpe-26" style="edgeStyle=orthogonalEdgeStyle;rounded=0;orthogonalLoop=1;jettySize=auto;html=1;entryX=0;entryY=0;entryDx=0;entryDy=64.5;entryPerimeter=0;" parent="1" source="Our_2A3Br8wd2iKmhFW6-23" target="Our_2A3Br8wd2iKmhFW6-26" edge="1">
          <mxGeometry relative="1" as="geometry">
            <Array as="points">
              <mxPoint x="-1880.88" y="1253" />
              <mxPoint x="-1633.88" y="1253" />
            </Array>
          </mxGeometry>
        </mxCell>
        <mxCell id="KpYmoEpn27h0bMTAHkpe-27" style="edgeStyle=orthogonalEdgeStyle;rounded=0;orthogonalLoop=1;jettySize=auto;html=1;entryX=0;entryY=0;entryDx=0;entryDy=40;entryPerimeter=0;" parent="1" source="Our_2A3Br8wd2iKmhFW6-23" target="Our_2A3Br8wd2iKmhFW6-25" edge="1">
          <mxGeometry relative="1" as="geometry">
            <Array as="points">
              <mxPoint x="-1880.88" y="1253" />
              <mxPoint x="-1478.88" y="1253" />
            </Array>
          </mxGeometry>
        </mxCell>
        <mxCell id="Our_2A3Br8wd2iKmhFW6-23" value="Main manager" style="verticalAlign=top;align=left;spacingTop=8;spacingLeft=2;spacingRight=12;shape=cube;size=10;direction=south;fontStyle=4;html=1;rounded=0;shadow=0;comic=0;labelBackgroundColor=none;strokeWidth=1;fontFamily=Verdana;fontSize=12;fillColor=#1ba1e2;fontColor=#ffffff;strokeColor=#006EAF;" parent="1" vertex="1">
          <mxGeometry x="-1930.88" y="1183" width="100" height="40" as="geometry" />
        </mxCell>
        <mxCell id="Our_2A3Br8wd2iKmhFW6-24" value="Data Manager" style="verticalAlign=top;align=left;spacingTop=8;spacingLeft=2;spacingRight=12;shape=cube;size=10;direction=south;fontStyle=4;html=1;rounded=0;shadow=0;comic=0;labelBackgroundColor=none;strokeWidth=1;fontFamily=Verdana;fontSize=12;fillColor=#ffe6cc;strokeColor=#d79b00;" parent="1" vertex="1">
          <mxGeometry x="-2068.38" y="1283" width="169" height="160" as="geometry" />
        </mxCell>
        <mxCell id="Our_2A3Br8wd2iKmhFW6-25" value="Map Manager" style="verticalAlign=top;align=left;spacingTop=8;spacingLeft=2;spacingRight=12;shape=cube;size=10;direction=south;fontStyle=4;html=1;rounded=0;shadow=0;comic=0;labelBackgroundColor=none;strokeWidth=1;fontFamily=Verdana;fontSize=12;fillColor=#e1d5e7;strokeColor=#9673a6;" parent="1" vertex="1">
          <mxGeometry x="-1529.13" y="1283" width="90" height="40" as="geometry" />
        </mxCell>
        <mxCell id="Our_2A3Br8wd2iKmhFW6-26" value="Frontend Manager" style="verticalAlign=top;align=left;spacingTop=8;spacingLeft=2;spacingRight=12;shape=cube;size=10;direction=south;fontStyle=4;html=1;rounded=0;shadow=0;comic=0;labelBackgroundColor=none;strokeWidth=1;fontFamily=Verdana;fontSize=12;fillColor=#dae8fc;strokeColor=#6c8ebf;" parent="1" vertex="1">
          <mxGeometry x="-1708.38" y="1283" width="139" height="129" as="geometry" />
        </mxCell>
        <mxCell id="Our_2A3Br8wd2iKmhFW6-27" value="Backend Manager" style="verticalAlign=top;align=left;spacingTop=8;spacingLeft=2;spacingRight=12;shape=cube;size=10;direction=south;fontStyle=4;html=1;rounded=0;shadow=0;comic=0;labelBackgroundColor=none;strokeWidth=1;fontFamily=Verdana;fontSize=12;fillColor=#d5e8d4;strokeColor=#82b366;" parent="1" vertex="1">
          <mxGeometry x="-1875.88" y="1283" width="139" height="100" as="geometry" />
        </mxCell>
        <mxCell id="Our_2A3Br8wd2iKmhFW6-28" value="Solver Manager" style="rounded=0;whiteSpace=wrap;html=1;" parent="1" vertex="1">
          <mxGeometry x="-1858.38" y="1318" width="95" height="25" as="geometry" />
        </mxCell>
        <mxCell id="Our_2A3Br8wd2iKmhFW6-29" value="Batch Creator" style="rounded=0;whiteSpace=wrap;html=1;" parent="1" vertex="1">
          <mxGeometry x="-2058.38" y="1318" width="90" height="25" as="geometry" />
        </mxCell>
        <mxCell id="Our_2A3Br8wd2iKmhFW6-30" value="Memory Analyzer" style="rounded=0;whiteSpace=wrap;html=1;" parent="1" vertex="1">
          <mxGeometry x="-2058.38" y="1353" width="100" height="25" as="geometry" />
        </mxCell>
        <mxCell id="Our_2A3Br8wd2iKmhFW6-31" value="Raw Data Preprocessor" style="rounded=0;whiteSpace=wrap;html=1;" parent="1" vertex="1">
          <mxGeometry x="-2058.38" y="1387" width="140" height="25" as="geometry" />
        </mxCell>
        <mxCell id="Our_2A3Br8wd2iKmhFW6-33" value="Graph Builder" style="rounded=0;whiteSpace=wrap;html=1;" parent="1" vertex="1">
          <mxGeometry x="-1698.38" y="1318" width="95" height="15" as="geometry" />
        </mxCell>
        <mxCell id="Our_2A3Br8wd2iKmhFW6-34" value="Loop Detector" style="rounded=0;whiteSpace=wrap;html=1;" parent="1" vertex="1">
          <mxGeometry x="-1698.38" y="1338" width="95" height="15" as="geometry" />
        </mxCell>
        <mxCell id="Our_2A3Br8wd2iKmhFW6-35" value="Setup Manager" style="verticalAlign=top;align=left;spacingTop=8;spacingLeft=2;spacingRight=12;shape=cube;size=10;direction=south;fontStyle=4;html=1;rounded=0;shadow=0;comic=0;labelBackgroundColor=none;strokeWidth=1;fontFamily=Verdana;fontSize=12;fillColor=#fff2cc;strokeColor=#d6b656;" parent="1" vertex="1">
          <mxGeometry x="-2211.38" y="1283" width="120" height="97" as="geometry" />
        </mxCell>
        <mxCell id="Our_2A3Br8wd2iKmhFW6-36" value="Sensor setup" style="rounded=0;whiteSpace=wrap;html=1;" parent="1" vertex="1">
          <mxGeometry x="-2200.38" y="1323" width="89" height="30" as="geometry" />
        </mxCell>
        <mxCell id="Our_2A3Br8wd2iKmhFW6-37" value="Anomaly Detector" style="rounded=0;whiteSpace=wrap;html=1;" parent="1" vertex="1">
          <mxGeometry x="-1698.38" y="1358" width="110" height="15" as="geometry" />
        </mxCell>
        <mxCell id="Our_2A3Br8wd2iKmhFW6-49" value="&lt;ol style=&quot;&quot;&gt;&lt;li&gt;Prepare Data Batch based on request from other managers/regime&lt;/li&gt;&lt;li&gt;Preprocess raw data (optional)&lt;/li&gt;&lt;li&gt;Manipulates all data: read, save, delete, etc...&lt;/li&gt;&lt;/ol&gt;" style="text;strokeColor=none;fillColor=none;html=1;whiteSpace=wrap;verticalAlign=middle;overflow=hidden;rounded=0;" parent="1" vertex="1">
          <mxGeometry x="-2078.88" y="1443" width="190" height="132" as="geometry" />
        </mxCell>
        <mxCell id="Our_2A3Br8wd2iKmhFW6-50" value="&lt;ol style=&quot;&quot;&gt;&lt;li&gt;Build graph and factors&lt;/li&gt;&lt;li&gt;Compute loops&lt;/li&gt;&lt;li&gt;Detect anomalies&lt;/li&gt;&lt;li&gt;Sparcify/Marginilize graph&lt;/li&gt;&lt;li&gt;Process Data Batch&lt;/li&gt;&lt;/ol&gt;" style="text;strokeColor=none;fillColor=none;html=1;whiteSpace=wrap;verticalAlign=middle;overflow=hidden;rounded=0;" parent="1" vertex="1">
          <mxGeometry x="-1729.88" y="1408" width="173" height="105" as="geometry" />
        </mxCell>
        <mxCell id="Our_2A3Br8wd2iKmhFW6-51" value="&lt;div&gt;&lt;br&gt;&lt;/div&gt;&lt;ol style=&quot;&quot;&gt;&lt;li&gt;Solve system&lt;/li&gt;&lt;li&gt;Update Graph&lt;/li&gt;&lt;li&gt;Compute debug metrics&lt;/li&gt;&lt;/ol&gt;" style="text;strokeColor=none;fillColor=none;html=1;whiteSpace=wrap;verticalAlign=middle;overflow=hidden;rounded=0;" parent="1" vertex="1">
          <mxGeometry x="-1885.88" y="1370" width="139.5" height="93" as="geometry" />
        </mxCell>
        <mxCell id="Our_2A3Br8wd2iKmhFW6-52" value="&lt;ol style=&quot;&quot;&gt;&lt;li style=&quot;&quot;&gt;&lt;font style=&quot;font-size: 12px;&quot;&gt;Control whole system&lt;/font&gt;&lt;/li&gt;&lt;/ol&gt;" style="text;strokeColor=none;fillColor=none;html=1;whiteSpace=wrap;verticalAlign=middle;overflow=hidden;rounded=0;" parent="1" vertex="1">
          <mxGeometry x="-1964.63" y="1143" width="167.5" height="30" as="geometry" />
        </mxCell>
        <mxCell id="Our_2A3Br8wd2iKmhFW6-53" value="&lt;ol style=&quot;&quot;&gt;&lt;li&gt;Parse sensors configs and create sensors&lt;/li&gt;&lt;/ol&gt;" style="text;strokeColor=none;fillColor=none;html=1;whiteSpace=wrap;verticalAlign=middle;overflow=hidden;rounded=0;" parent="1" vertex="1">
          <mxGeometry x="-2229.25" y="1386.5" width="126" height="60" as="geometry" />
        </mxCell>
        <mxCell id="Our_2A3Br8wd2iKmhFW6-54" value="&lt;ol style=&quot;&quot;&gt;&lt;li&gt;Save map&lt;/li&gt;&lt;li&gt;Convert map to different formats&lt;/li&gt;&lt;/ol&gt;" style="text;strokeColor=none;fillColor=none;html=1;whiteSpace=wrap;verticalAlign=middle;overflow=hidden;rounded=0;" parent="1" vertex="1">
          <mxGeometry x="-1554.13" y="1323" width="294" height="57.5" as="geometry" />
        </mxCell>
        <mxCell id="Our_2A3Br8wd2iKmhFW6-55" value="Metrics calculation" style="rounded=0;whiteSpace=wrap;html=1;" parent="1" vertex="1">
          <mxGeometry x="-1858.38" y="1350.5" width="95" height="25" as="geometry" />
        </mxCell>
        <mxCell id="Our_2A3Br8wd2iKmhFW6-72" value="" style="endArrow=classic;startArrow=classic;html=1;rounded=0;exitX=1;exitY=0.5;exitDx=0;exitDy=0;entryX=0;entryY=0.5;entryDx=0;entryDy=0;" parent="1" source="PIaccMXLNr0q7VpcvSsv-3" target="Sj2925MPbV6JyILS4WiL-57" edge="1">
          <mxGeometry width="50" height="50" relative="1" as="geometry">
            <mxPoint x="-1636.88" y="758" as="sourcePoint" />
            <mxPoint x="-1586.88" y="708" as="targetPoint" />
          </mxGeometry>
        </mxCell>
        <mxCell id="Our_2A3Br8wd2iKmhFW6-74" value="&lt;font style=&quot;font-size: 26px;&quot;&gt;Data flow pipeline&lt;/font&gt;" style="text;html=1;strokeColor=none;fillColor=none;align=center;verticalAlign=middle;whiteSpace=wrap;rounded=0;" parent="1" vertex="1">
          <mxGeometry x="-1943" y="9" width="261.5" height="30" as="geometry" />
        </mxCell>
        <mxCell id="Our_2A3Br8wd2iKmhFW6-75" value="&lt;font style=&quot;font-size: 26px;&quot;&gt;Management comunication&lt;/font&gt;" style="text;html=1;strokeColor=none;fillColor=none;align=center;verticalAlign=middle;whiteSpace=wrap;rounded=0;" parent="1" vertex="1">
          <mxGeometry x="-2258.38" y="753" width="261.5" height="30" as="geometry" />
        </mxCell>
        <mxCell id="Our_2A3Br8wd2iKmhFW6-76" value="&lt;span style=&quot;font-size: 26px;&quot;&gt;Management functions&lt;/span&gt;" style="text;html=1;strokeColor=none;fillColor=none;align=center;verticalAlign=middle;whiteSpace=wrap;rounded=0;" parent="1" vertex="1">
          <mxGeometry x="-2275.88" y="1123" width="291.5" height="30" as="geometry" />
        </mxCell>
        <mxCell id="Our_2A3Br8wd2iKmhFW6-77" value="&lt;font style=&quot;font-size: 10px;&quot;&gt;Element 1&lt;/font&gt;" style="text;html=1;strokeColor=none;fillColor=none;align=center;verticalAlign=middle;whiteSpace=wrap;rounded=0;" parent="1" vertex="1">
          <mxGeometry x="-1393" y="169" width="55" height="10" as="geometry" />
        </mxCell>
        <mxCell id="Our_2A3Br8wd2iKmhFW6-80" value="&lt;font style=&quot;font-size: 10px;&quot;&gt;N&lt;/font&gt;" style="text;html=1;strokeColor=none;fillColor=none;align=center;verticalAlign=middle;whiteSpace=wrap;rounded=0;" parent="1" vertex="1">
          <mxGeometry x="-1379" y="369" width="24" height="10" as="geometry" />
        </mxCell>
        <mxCell id="rgx_yNhjNNztfCn2ezIr-1" value="" style="endArrow=none;html=1;rounded=0;entryX=1;entryY=0.25;entryDx=0;entryDy=0;exitX=0;exitY=0.25;exitDx=0;exitDy=0;" parent="1" source="Sj2925MPbV6JyILS4WiL-1" target="Sj2925MPbV6JyILS4WiL-1" edge="1">
          <mxGeometry width="50" height="50" relative="1" as="geometry">
            <mxPoint x="-1902" y="274.5" as="sourcePoint" />
            <mxPoint x="-1833" y="273.5" as="targetPoint" />
          </mxGeometry>
        </mxCell>
        <mxCell id="rgx_yNhjNNztfCn2ezIr-2" value="" style="endArrow=none;html=1;rounded=0;entryX=1;entryY=0.5;entryDx=0;entryDy=0;exitX=0;exitY=0.5;exitDx=0;exitDy=0;" parent="1" source="Sj2925MPbV6JyILS4WiL-1" target="Sj2925MPbV6JyILS4WiL-1" edge="1">
          <mxGeometry width="50" height="50" relative="1" as="geometry">
            <mxPoint x="-1899" y="249" as="sourcePoint" />
            <mxPoint x="-1829" y="249" as="targetPoint" />
          </mxGeometry>
        </mxCell>
        <mxCell id="rgx_yNhjNNztfCn2ezIr-3" value="" style="endArrow=none;html=1;rounded=0;entryX=1;entryY=0.75;entryDx=0;entryDy=0;exitX=0;exitY=0.75;exitDx=0;exitDy=0;" parent="1" source="Sj2925MPbV6JyILS4WiL-1" target="Sj2925MPbV6JyILS4WiL-1" edge="1">
          <mxGeometry width="50" height="50" relative="1" as="geometry">
            <mxPoint x="-1889" y="259" as="sourcePoint" />
            <mxPoint x="-1819" y="259" as="targetPoint" />
          </mxGeometry>
        </mxCell>
        <mxCell id="rgx_yNhjNNztfCn2ezIr-4" value="&lt;font style=&quot;font-size: 10px;&quot;&gt;File 1&lt;/font&gt;" style="text;html=1;strokeColor=none;fillColor=none;align=center;verticalAlign=middle;whiteSpace=wrap;rounded=0;" parent="1" vertex="1">
          <mxGeometry x="-1894.5" y="219" width="41" height="10" as="geometry" />
        </mxCell>
        <mxCell id="rgx_yNhjNNztfCn2ezIr-10" value="Data" style="text;html=1;strokeColor=none;fillColor=none;align=center;verticalAlign=middle;whiteSpace=wrap;rounded=0;" parent="1" vertex="1">
          <mxGeometry x="-1892" y="189" width="36" height="15" as="geometry" />
        </mxCell>
        <mxCell id="rgx_yNhjNNztfCn2ezIr-65" style="edgeStyle=orthogonalEdgeStyle;orthogonalLoop=1;jettySize=auto;html=1;exitX=0.5;exitY=1;exitDx=0;exitDy=0;entryX=0.496;entryY=0.012;entryDx=0;entryDy=0;entryPerimeter=0;" parent="1" source="rgx_yNhjNNztfCn2ezIr-40" target="rgx_yNhjNNztfCn2ezIr-78" edge="1">
          <mxGeometry relative="1" as="geometry">
            <mxPoint x="1017.8999999999997" y="630.3600000000001" as="targetPoint" />
          </mxGeometry>
        </mxCell>
        <mxCell id="rgx_yNhjNNztfCn2ezIr-67" value="&lt;font style=&quot;font-size: 22px;&quot;&gt;+&lt;/font&gt;" style="edgeLabel;html=1;align=center;verticalAlign=middle;resizable=0;points=[];" parent="rgx_yNhjNNztfCn2ezIr-65" vertex="1" connectable="0">
          <mxGeometry x="0.0944" relative="1" as="geometry">
            <mxPoint as="offset" />
          </mxGeometry>
        </mxCell>
        <mxCell id="rgx_yNhjNNztfCn2ezIr-68" style="edgeStyle=orthogonalEdgeStyle;orthogonalLoop=1;jettySize=auto;html=1;exitX=0;exitY=0.5;exitDx=0;exitDy=0;entryX=0.5;entryY=0;entryDx=0;entryDy=0;" parent="1" source="rgx_yNhjNNztfCn2ezIr-40" target="rgx_yNhjNNztfCn2ezIr-74" edge="1">
          <mxGeometry relative="1" as="geometry">
            <mxPoint x="649.7499999999999" y="638.5199999999995" as="targetPoint" />
          </mxGeometry>
        </mxCell>
        <mxCell id="rgx_yNhjNNztfCn2ezIr-70" value="&lt;font style=&quot;font-size: 22px;&quot;&gt;-&lt;/font&gt;" style="edgeLabel;html=1;align=center;verticalAlign=middle;resizable=0;points=[];" parent="rgx_yNhjNNztfCn2ezIr-68" vertex="1" connectable="0">
          <mxGeometry x="0.0586" y="-1" relative="1" as="geometry">
            <mxPoint as="offset" />
          </mxGeometry>
        </mxCell>
        <mxCell id="rgx_yNhjNNztfCn2ezIr-40" value="Check system consistency/&#xa;minimum requirenments" style="rhombus;fillColor=#ffffc0;strokeColor=#ff0000;" parent="1" vertex="1">
          <mxGeometry x="713.64" y="510" width="229" height="95" as="geometry" />
        </mxCell>
        <mxCell id="rgx_yNhjNNztfCn2ezIr-60" style="edgeStyle=orthogonalEdgeStyle;orthogonalLoop=1;jettySize=auto;html=1;exitX=0.5;exitY=1;exitDx=0;exitDy=0;entryX=0.493;entryY=-0.028;entryDx=0;entryDy=0;entryPerimeter=0;" parent="1" source="rgx_yNhjNNztfCn2ezIr-51" target="rgx_yNhjNNztfCn2ezIr-59" edge="1">
          <mxGeometry relative="1" as="geometry" />
        </mxCell>
        <mxCell id="rgx_yNhjNNztfCn2ezIr-51" value="" style="ellipse;shape=startState;fillColor=#33FF33;strokeColor=#ff0000;fontColor=#000000;" parent="1" vertex="1">
          <mxGeometry x="813.14" y="380" width="30" height="30" as="geometry" />
        </mxCell>
        <mxCell id="rgx_yNhjNNztfCn2ezIr-62" style="edgeStyle=orthogonalEdgeStyle;orthogonalLoop=1;jettySize=auto;html=1;entryX=0.5;entryY=0;entryDx=0;entryDy=0;exitX=0.502;exitY=1.074;exitDx=0;exitDy=0;exitPerimeter=0;" parent="1" source="rgx_yNhjNNztfCn2ezIr-59" target="rgx_yNhjNNztfCn2ezIr-40" edge="1">
          <mxGeometry relative="1" as="geometry" />
        </mxCell>
        <mxCell id="rgx_yNhjNNztfCn2ezIr-59" value="init Setup Manager" style="whiteSpace=wrap;html=1;align=center;" parent="1" vertex="1">
          <mxGeometry x="778.14" y="440" width="100" height="40" as="geometry" />
        </mxCell>
        <mxCell id="rgx_yNhjNNztfCn2ezIr-124" style="edgeStyle=orthogonalEdgeStyle;orthogonalLoop=1;jettySize=auto;html=1;entryX=0;entryY=0.5;entryDx=0;entryDy=0;" parent="1" source="rgx_yNhjNNztfCn2ezIr-74" target="rgx_yNhjNNztfCn2ezIr-96" edge="1">
          <mxGeometry relative="1" as="geometry">
            <mxPoint x="142.14" y="850" as="targetPoint" />
            <Array as="points">
              <mxPoint x="402.14" y="650" />
              <mxPoint x="402.14" y="2220" />
            </Array>
          </mxGeometry>
        </mxCell>
        <mxCell id="rgx_yNhjNNztfCn2ezIr-74" value="Exception" style="ellipse;whiteSpace=wrap;html=1;align=center;fillColor=#f8cecc;strokeColor=#b85450;" parent="1" vertex="1">
          <mxGeometry x="622.14" y="630" width="100" height="40" as="geometry" />
        </mxCell>
        <mxCell id="rgx_yNhjNNztfCn2ezIr-79" style="edgeStyle=orthogonalEdgeStyle;orthogonalLoop=1;jettySize=auto;html=1;entryX=0.5;entryY=0;entryDx=0;entryDy=0;" parent="1" source="rgx_yNhjNNztfCn2ezIr-78" target="rgx_yNhjNNztfCn2ezIr-80" edge="1">
          <mxGeometry relative="1" as="geometry">
            <mxPoint x="828.14" y="760" as="targetPoint" />
          </mxGeometry>
        </mxCell>
        <mxCell id="rgx_yNhjNNztfCn2ezIr-78" value="Init &amp;amp; setup all managers" style="rounded=0;whiteSpace=wrap;html=1;" parent="1" vertex="1">
          <mxGeometry x="768.14" y="660" width="120" height="60" as="geometry" />
        </mxCell>
        <mxCell id="bXf-CEroN6sEkJFDdHf6-1" value="&lt;font style=&quot;font-size: 22px;&quot;&gt;+&lt;/font&gt;" style="edgeStyle=orthogonalEdgeStyle;rounded=0;orthogonalLoop=1;jettySize=auto;html=1;exitX=0.5;exitY=1;exitDx=0;exitDy=0;entryX=0.5;entryY=0;entryDx=0;entryDy=0;" parent="1" source="rgx_yNhjNNztfCn2ezIr-80" target="bXf-CEroN6sEkJFDdHf6-37" edge="1">
          <mxGeometry relative="1" as="geometry" />
        </mxCell>
        <mxCell id="rgx_yNhjNNztfCn2ezIr-80" value="Is data available" style="rhombus;fillColor=#ffffc0;strokeColor=#ff0000;" parent="1" vertex="1">
          <mxGeometry x="713.64" y="760" width="229" height="95" as="geometry" />
        </mxCell>
        <mxCell id="bXf-CEroN6sEkJFDdHf6-2" style="edgeStyle=orthogonalEdgeStyle;rounded=0;orthogonalLoop=1;jettySize=auto;html=1;exitX=0.5;exitY=1;exitDx=0;exitDy=0;entryX=0.5;entryY=0;entryDx=0;entryDy=0;" parent="1" source="rgx_yNhjNNztfCn2ezIr-81" target="rgx_yNhjNNztfCn2ezIr-94" edge="1">
          <mxGeometry relative="1" as="geometry" />
        </mxCell>
        <mxCell id="bXf-CEroN6sEkJFDdHf6-8" style="edgeStyle=orthogonalEdgeStyle;rounded=0;orthogonalLoop=1;jettySize=auto;html=1;exitX=0.5;exitY=1;exitDx=0;exitDy=0;entryX=0.5;entryY=0;entryDx=0;entryDy=0;" parent="1" source="rgx_yNhjNNztfCn2ezIr-81" target="bXf-CEroN6sEkJFDdHf6-9" edge="1">
          <mxGeometry relative="1" as="geometry">
            <mxPoint x="1008.11" y="1440" as="targetPoint" />
            <Array as="points">
              <mxPoint x="827.61" y="1220" />
              <mxPoint x="1007.61" y="1220" />
            </Array>
          </mxGeometry>
        </mxCell>
        <mxCell id="rgx_yNhjNNztfCn2ezIr-81" value="Get Data from &lt;br&gt;Data Manager" style="rounded=0;whiteSpace=wrap;html=1;" parent="1" vertex="1">
          <mxGeometry x="767.61" y="1130" width="120" height="60" as="geometry" />
        </mxCell>
        <mxCell id="rgx_yNhjNNztfCn2ezIr-112" style="edgeStyle=orthogonalEdgeStyle;orthogonalLoop=1;jettySize=auto;html=1;" parent="1" source="rgx_yNhjNNztfCn2ezIr-83" target="rgx_yNhjNNztfCn2ezIr-106" edge="1">
          <mxGeometry relative="1" as="geometry" />
        </mxCell>
        <mxCell id="rgx_yNhjNNztfCn2ezIr-83" value="Build Graph" style="rounded=0;whiteSpace=wrap;html=1;" parent="1" vertex="1">
          <mxGeometry x="767.61" y="1570" width="120" height="60" as="geometry" />
        </mxCell>
        <mxCell id="rgx_yNhjNNztfCn2ezIr-97" style="edgeStyle=orthogonalEdgeStyle;orthogonalLoop=1;jettySize=auto;html=1;exitX=0;exitY=0.5;exitDx=0;exitDy=0;entryX=0;entryY=0.5;entryDx=0;entryDy=0;" parent="1" source="rgx_yNhjNNztfCn2ezIr-80" target="rgx_yNhjNNztfCn2ezIr-96" edge="1">
          <mxGeometry relative="1" as="geometry">
            <Array as="points">
              <mxPoint x="482.14" y="807" />
              <mxPoint x="482.14" y="2220" />
            </Array>
            <mxPoint x="282.14" y="887.5" as="sourcePoint" />
          </mxGeometry>
        </mxCell>
        <mxCell id="rgx_yNhjNNztfCn2ezIr-98" value="&lt;font style=&quot;font-size: 22px;&quot;&gt;-&lt;/font&gt;" style="edgeLabel;html=1;align=center;verticalAlign=middle;resizable=0;points=[];" parent="rgx_yNhjNNztfCn2ezIr-97" vertex="1" connectable="0">
          <mxGeometry x="-0.165" y="-1" relative="1" as="geometry">
            <mxPoint as="offset" />
          </mxGeometry>
        </mxCell>
        <mxCell id="bXf-CEroN6sEkJFDdHf6-3" value="&lt;font style=&quot;font-size: 22px;&quot;&gt;-&lt;/font&gt;" style="edgeLabel;html=1;align=center;verticalAlign=middle;resizable=0;points=[];" parent="rgx_yNhjNNztfCn2ezIr-97" vertex="1" connectable="0">
          <mxGeometry x="-0.8184" relative="1" as="geometry">
            <mxPoint y="-17" as="offset" />
          </mxGeometry>
        </mxCell>
        <mxCell id="bXf-CEroN6sEkJFDdHf6-4" value="&lt;font style=&quot;font-size: 22px;&quot;&gt;+&lt;/font&gt;" style="edgeStyle=orthogonalEdgeStyle;rounded=0;orthogonalLoop=1;jettySize=auto;html=1;exitX=0.5;exitY=1;exitDx=0;exitDy=0;entryX=0.5;entryY=0;entryDx=0;entryDy=0;" parent="1" source="rgx_yNhjNNztfCn2ezIr-94" target="rgx_yNhjNNztfCn2ezIr-103" edge="1">
          <mxGeometry relative="1" as="geometry" />
        </mxCell>
        <mxCell id="bXf-CEroN6sEkJFDdHf6-6" style="edgeStyle=orthogonalEdgeStyle;rounded=0;orthogonalLoop=1;jettySize=auto;html=1;exitX=0;exitY=0.5;exitDx=0;exitDy=0;entryX=0.5;entryY=0;entryDx=0;entryDy=0;" parent="1" source="rgx_yNhjNNztfCn2ezIr-94" target="rgx_yNhjNNztfCn2ezIr-83" edge="1">
          <mxGeometry relative="1" as="geometry">
            <Array as="points">
              <mxPoint x="671.61" y="1298" />
              <mxPoint x="671.61" y="1530" />
              <mxPoint x="827.61" y="1530" />
            </Array>
          </mxGeometry>
        </mxCell>
        <mxCell id="bXf-CEroN6sEkJFDdHf6-7" value="&lt;font style=&quot;font-size: 22px;&quot;&gt;-&lt;/font&gt;" style="edgeLabel;html=1;align=center;verticalAlign=middle;resizable=0;points=[];" parent="bXf-CEroN6sEkJFDdHf6-6" vertex="1" connectable="0">
          <mxGeometry x="-0.3128" y="5" relative="1" as="geometry">
            <mxPoint x="-14" y="3" as="offset" />
          </mxGeometry>
        </mxCell>
        <mxCell id="rgx_yNhjNNztfCn2ezIr-94" value="Is solver busy" style="rhombus;fillColor=#ffffc0;strokeColor=#ff0000;" parent="1" vertex="1">
          <mxGeometry x="713.11" y="1250" width="229" height="95" as="geometry" />
        </mxCell>
        <mxCell id="rgx_yNhjNNztfCn2ezIr-96" value="Finish" style="ellipse;whiteSpace=wrap;html=1;align=center;fillColor=#0050ef;strokeColor=#001DBC;fontColor=#ffffff;" parent="1" vertex="1">
          <mxGeometry x="777.61" y="2200" width="100" height="40" as="geometry" />
        </mxCell>
        <mxCell id="bXf-CEroN6sEkJFDdHf6-5" style="edgeStyle=orthogonalEdgeStyle;rounded=0;orthogonalLoop=1;jettySize=auto;html=1;exitX=0.5;exitY=1;exitDx=0;exitDy=0;entryX=0.5;entryY=0;entryDx=0;entryDy=0;" parent="1" source="rgx_yNhjNNztfCn2ezIr-103" target="rgx_yNhjNNztfCn2ezIr-83" edge="1">
          <mxGeometry relative="1" as="geometry" />
        </mxCell>
        <mxCell id="rgx_yNhjNNztfCn2ezIr-103" value="Wait for solver" style="rounded=0;whiteSpace=wrap;html=1;" parent="1" vertex="1">
          <mxGeometry x="774.86" y="1440" width="105.5" height="40" as="geometry" />
        </mxCell>
        <mxCell id="rgx_yNhjNNztfCn2ezIr-115" value="&lt;font style=&quot;font-size: 22px;&quot;&gt;+&lt;/font&gt;" style="edgeStyle=orthogonalEdgeStyle;orthogonalLoop=1;jettySize=auto;html=1;entryX=0.504;entryY=-0.015;entryDx=0;entryDy=0;entryPerimeter=0;" parent="1" source="rgx_yNhjNNztfCn2ezIr-106" target="rgx_yNhjNNztfCn2ezIr-114" edge="1">
          <mxGeometry relative="1" as="geometry" />
        </mxCell>
        <mxCell id="rgx_yNhjNNztfCn2ezIr-118" style="edgeStyle=orthogonalEdgeStyle;orthogonalLoop=1;jettySize=auto;html=1;exitX=0;exitY=0.5;exitDx=0;exitDy=0;entryX=-0.011;entryY=0.465;entryDx=0;entryDy=0;entryPerimeter=0;" parent="1" source="rgx_yNhjNNztfCn2ezIr-106" target="rgx_yNhjNNztfCn2ezIr-117" edge="1">
          <mxGeometry relative="1" as="geometry">
            <Array as="points">
              <mxPoint x="671.61" y="1737" />
              <mxPoint x="671.61" y="1990" />
              <mxPoint x="772.61" y="1990" />
            </Array>
          </mxGeometry>
        </mxCell>
        <mxCell id="rgx_yNhjNNztfCn2ezIr-119" value="&lt;font style=&quot;font-size: 22px;&quot;&gt;-&lt;/font&gt;" style="edgeLabel;html=1;align=center;verticalAlign=middle;resizable=0;points=[];" parent="rgx_yNhjNNztfCn2ezIr-118" vertex="1" connectable="0">
          <mxGeometry x="-0.6872" y="1" relative="1" as="geometry">
            <mxPoint as="offset" />
          </mxGeometry>
        </mxCell>
        <mxCell id="rgx_yNhjNNztfCn2ezIr-106" value="are anomalies present" style="rhombus;fillColor=#ffffc0;strokeColor=#ff0000;" parent="1" vertex="1">
          <mxGeometry x="713.11" y="1690" width="229" height="95" as="geometry" />
        </mxCell>
        <mxCell id="rgx_yNhjNNztfCn2ezIr-120" style="edgeStyle=orthogonalEdgeStyle;orthogonalLoop=1;jettySize=auto;html=1;entryX=0.497;entryY=-0.057;entryDx=0;entryDy=0;entryPerimeter=0;" parent="1" source="rgx_yNhjNNztfCn2ezIr-114" target="rgx_yNhjNNztfCn2ezIr-117" edge="1">
          <mxGeometry relative="1" as="geometry" />
        </mxCell>
        <mxCell id="rgx_yNhjNNztfCn2ezIr-114" value="Remove anomalies" style="rounded=0;whiteSpace=wrap;html=1;" parent="1" vertex="1">
          <mxGeometry x="767.61" y="1850" width="120" height="60" as="geometry" />
        </mxCell>
        <mxCell id="rgx_yNhjNNztfCn2ezIr-122" style="edgeStyle=orthogonalEdgeStyle;orthogonalLoop=1;jettySize=auto;html=1;entryX=0.508;entryY=-0.002;entryDx=0;entryDy=0;entryPerimeter=0;" parent="1" source="rgx_yNhjNNztfCn2ezIr-117" target="rgx_yNhjNNztfCn2ezIr-121" edge="1">
          <mxGeometry relative="1" as="geometry" />
        </mxCell>
        <mxCell id="rgx_yNhjNNztfCn2ezIr-132" style="edgeStyle=orthogonalEdgeStyle;orthogonalLoop=1;jettySize=auto;html=1;rounded=0;entryX=0.72;entryY=0;entryDx=0;entryDy=0;entryPerimeter=0;" parent="1" source="rgx_yNhjNNztfCn2ezIr-117" target="bXf-CEroN6sEkJFDdHf6-9" edge="1">
          <mxGeometry relative="1" as="geometry">
            <mxPoint x="1031.6100000000001" y="1370" as="targetPoint" />
            <Array as="points">
              <mxPoint x="833.14" y="2050" />
              <mxPoint x="1122.1399999999999" y="2050" />
              <mxPoint x="1122.1399999999999" y="1220" />
              <mxPoint x="1031.1399999999999" y="1220" />
            </Array>
          </mxGeometry>
        </mxCell>
        <mxCell id="rgx_yNhjNNztfCn2ezIr-117" value="Solve &amp;amp; update graph" style="rounded=0;whiteSpace=wrap;html=1;" parent="1" vertex="1">
          <mxGeometry x="767.61" y="1960" width="120" height="60" as="geometry" />
        </mxCell>
        <mxCell id="rgx_yNhjNNztfCn2ezIr-123" style="edgeStyle=orthogonalEdgeStyle;orthogonalLoop=1;jettySize=auto;html=1;entryX=0.5;entryY=0;entryDx=0;entryDy=0;" parent="1" source="rgx_yNhjNNztfCn2ezIr-121" target="rgx_yNhjNNztfCn2ezIr-96" edge="1">
          <mxGeometry relative="1" as="geometry" />
        </mxCell>
        <mxCell id="rgx_yNhjNNztfCn2ezIr-121" value="Save map" style="rounded=0;whiteSpace=wrap;html=1;" parent="1" vertex="1">
          <mxGeometry x="767.61" y="2090" width="120" height="60" as="geometry" />
        </mxCell>
        <mxCell id="bXf-CEroN6sEkJFDdHf6-10" style="edgeStyle=orthogonalEdgeStyle;rounded=0;orthogonalLoop=1;jettySize=auto;html=1;exitX=0.5;exitY=1;exitDx=0;exitDy=0;entryX=0.5;entryY=0;entryDx=0;entryDy=0;" parent="1" source="bXf-CEroN6sEkJFDdHf6-9" target="rgx_yNhjNNztfCn2ezIr-83" edge="1">
          <mxGeometry relative="1" as="geometry">
            <Array as="points">
              <mxPoint x="1008.61" y="1530" />
              <mxPoint x="827.61" y="1530" />
            </Array>
          </mxGeometry>
        </mxCell>
        <mxCell id="bXf-CEroN6sEkJFDdHf6-9" value="Detect Loops" style="rounded=0;whiteSpace=wrap;html=1;" parent="1" vertex="1">
          <mxGeometry x="955.11" y="1320" width="105.5" height="40" as="geometry" />
        </mxCell>
        <mxCell id="bXf-CEroN6sEkJFDdHf6-38" value="&lt;font style=&quot;font-size: 22px;&quot;&gt;+&lt;/font&gt;" style="edgeStyle=orthogonalEdgeStyle;rounded=0;orthogonalLoop=1;jettySize=auto;html=1;entryX=0.5;entryY=0;entryDx=0;entryDy=0;" parent="1" source="bXf-CEroN6sEkJFDdHf6-37" target="rgx_yNhjNNztfCn2ezIr-81" edge="1">
          <mxGeometry x="-0.2206" y="24" relative="1" as="geometry">
            <mxPoint as="offset" />
          </mxGeometry>
        </mxCell>
        <mxCell id="bXf-CEroN6sEkJFDdHf6-40" style="edgeStyle=orthogonalEdgeStyle;rounded=0;orthogonalLoop=1;jettySize=auto;html=1;exitX=0;exitY=0.5;exitDx=0;exitDy=0;entryX=0.5;entryY=0;entryDx=0;entryDy=0;" parent="1" source="bXf-CEroN6sEkJFDdHf6-37" target="bXf-CEroN6sEkJFDdHf6-39" edge="1">
          <mxGeometry relative="1" as="geometry" />
        </mxCell>
        <mxCell id="bXf-CEroN6sEkJFDdHf6-41" value="&lt;font style=&quot;font-size: 22px;&quot;&gt;-&lt;/font&gt;" style="edgeLabel;html=1;align=center;verticalAlign=middle;resizable=0;points=[];" parent="bXf-CEroN6sEkJFDdHf6-40" vertex="1" connectable="0">
          <mxGeometry x="0.0848" relative="1" as="geometry">
            <mxPoint x="7" y="-7" as="offset" />
          </mxGeometry>
        </mxCell>
        <mxCell id="bXf-CEroN6sEkJFDdHf6-37" value="Is Enough RAM &amp; Graph is active" style="rhombus;fillColor=#ffffc0;strokeColor=#ff0000;" parent="1" vertex="1">
          <mxGeometry x="713.64" y="920" width="229" height="95" as="geometry" />
        </mxCell>
        <mxCell id="bXf-CEroN6sEkJFDdHf6-42" style="edgeStyle=orthogonalEdgeStyle;rounded=0;orthogonalLoop=1;jettySize=auto;html=1;entryX=0.5;entryY=0;entryDx=0;entryDy=0;" parent="1" source="bXf-CEroN6sEkJFDdHf6-39" target="rgx_yNhjNNztfCn2ezIr-81" edge="1">
          <mxGeometry relative="1" as="geometry">
            <Array as="points">
              <mxPoint x="626.14" y="1080" />
              <mxPoint x="828.14" y="1080" />
            </Array>
          </mxGeometry>
        </mxCell>
        <mxCell id="bXf-CEroN6sEkJFDdHf6-39" value="Sparcify/Marginilize Graph" style="rounded=0;whiteSpace=wrap;html=1;" parent="1" vertex="1">
          <mxGeometry x="566.14" y="1000" width="120" height="60" as="geometry" />
        </mxCell>
        <mxCell id="spzIzzq94ilCveR_RDpe-6" style="edgeStyle=orthogonalEdgeStyle;rounded=0;orthogonalLoop=1;jettySize=auto;html=1;exitX=0.5;exitY=1;exitDx=0;exitDy=0;entryX=0.5;entryY=0;entryDx=0;entryDy=0;" parent="1" source="spzIzzq94ilCveR_RDpe-1" target="spzIzzq94ilCveR_RDpe-5" edge="1">
          <mxGeometry relative="1" as="geometry" />
        </mxCell>
        <mxCell id="spzIzzq94ilCveR_RDpe-1" value="Setup System" style="whiteSpace=wrap;html=1;align=center;" parent="1" vertex="1">
          <mxGeometry x="114" y="1068" width="100" height="40" as="geometry" />
        </mxCell>
        <mxCell id="spzIzzq94ilCveR_RDpe-4" style="edgeStyle=orthogonalEdgeStyle;rounded=0;orthogonalLoop=1;jettySize=auto;html=1;exitX=0.5;exitY=1;exitDx=0;exitDy=0;entryX=0.5;entryY=0;entryDx=0;entryDy=0;" parent="1" source="spzIzzq94ilCveR_RDpe-3" target="spzIzzq94ilCveR_RDpe-1" edge="1">
          <mxGeometry relative="1" as="geometry" />
        </mxCell>
        <mxCell id="spzIzzq94ilCveR_RDpe-3" value="" style="ellipse;shape=startState;fillColor=#00FF00;strokeColor=#ff0000;fontColor=#000000;" parent="1" vertex="1">
          <mxGeometry x="149" y="1008" width="30" height="30" as="geometry" />
        </mxCell>
        <mxCell id="spzIzzq94ilCveR_RDpe-8" value="&lt;font style=&quot;font-size: 22px;&quot;&gt;+&lt;/font&gt;" style="edgeStyle=orthogonalEdgeStyle;rounded=0;orthogonalLoop=1;jettySize=auto;html=1;exitX=0.5;exitY=1;exitDx=0;exitDy=0;entryX=0.5;entryY=0;entryDx=0;entryDy=0;" parent="1" source="spzIzzq94ilCveR_RDpe-5" target="spzIzzq94ilCveR_RDpe-7" edge="1">
          <mxGeometry relative="1" as="geometry" />
        </mxCell>
        <mxCell id="spzIzzq94ilCveR_RDpe-10" style="edgeStyle=orthogonalEdgeStyle;rounded=0;orthogonalLoop=1;jettySize=auto;html=1;exitX=0;exitY=0.5;exitDx=0;exitDy=0;entryX=0.5;entryY=0;entryDx=0;entryDy=0;" parent="1" source="spzIzzq94ilCveR_RDpe-5" target="spzIzzq94ilCveR_RDpe-9" edge="1">
          <mxGeometry relative="1" as="geometry">
            <mxPoint x="22" y="1235.5" as="targetPoint" />
          </mxGeometry>
        </mxCell>
        <mxCell id="spzIzzq94ilCveR_RDpe-11" value="&lt;font style=&quot;font-size: 22px;&quot;&gt;-&lt;/font&gt;" style="edgeLabel;html=1;align=center;verticalAlign=middle;resizable=0;points=[];" parent="spzIzzq94ilCveR_RDpe-10" vertex="1" connectable="0">
          <mxGeometry x="-0.1028" relative="1" as="geometry">
            <mxPoint y="-12" as="offset" />
          </mxGeometry>
        </mxCell>
        <mxCell id="spzIzzq94ilCveR_RDpe-5" value="Success?" style="rhombus;fillColor=#ffffc0;strokeColor=#ff0000;" parent="1" vertex="1">
          <mxGeometry x="97" y="1120.5" width="134" height="55" as="geometry" />
        </mxCell>
        <mxCell id="spzIzzq94ilCveR_RDpe-13" style="edgeStyle=orthogonalEdgeStyle;rounded=0;orthogonalLoop=1;jettySize=auto;html=1;entryX=0.5;entryY=0;entryDx=0;entryDy=0;" parent="1" source="spzIzzq94ilCveR_RDpe-7" target="spzIzzq94ilCveR_RDpe-12" edge="1">
          <mxGeometry relative="1" as="geometry" />
        </mxCell>
        <mxCell id="spzIzzq94ilCveR_RDpe-7" value="Make batch" style="whiteSpace=wrap;html=1;align=center;" parent="1" vertex="1">
          <mxGeometry x="114" y="1240.5" width="100" height="40" as="geometry" />
        </mxCell>
        <mxCell id="spzIzzq94ilCveR_RDpe-9" value="Setup&lt;br&gt;Exception" style="ellipse;whiteSpace=wrap;html=1;align=center;fillColor=#f8cecc;strokeColor=#b85450;" parent="1" vertex="1">
          <mxGeometry x="-28" y="1200.5" width="100" height="40" as="geometry" />
        </mxCell>
        <mxCell id="spzIzzq94ilCveR_RDpe-16" style="edgeStyle=orthogonalEdgeStyle;rounded=0;orthogonalLoop=1;jettySize=auto;html=1;entryX=0.5;entryY=0;entryDx=0;entryDy=0;" parent="1" source="spzIzzq94ilCveR_RDpe-12" target="spzIzzq94ilCveR_RDpe-15" edge="1">
          <mxGeometry relative="1" as="geometry" />
        </mxCell>
        <mxCell id="spzIzzq94ilCveR_RDpe-17" value="&lt;font style=&quot;font-size: 22px;&quot;&gt;+&lt;/font&gt;" style="edgeLabel;html=1;align=center;verticalAlign=middle;resizable=0;points=[];" parent="spzIzzq94ilCveR_RDpe-16" vertex="1" connectable="0">
          <mxGeometry x="-0.2889" relative="1" as="geometry">
            <mxPoint as="offset" />
          </mxGeometry>
        </mxCell>
        <mxCell id="spzIzzq94ilCveR_RDpe-19" style="edgeStyle=orthogonalEdgeStyle;rounded=0;orthogonalLoop=1;jettySize=auto;html=1;entryX=0.5;entryY=0;entryDx=0;entryDy=0;" parent="1" source="spzIzzq94ilCveR_RDpe-12" target="spzIzzq94ilCveR_RDpe-18" edge="1">
          <mxGeometry relative="1" as="geometry" />
        </mxCell>
        <mxCell id="spzIzzq94ilCveR_RDpe-20" value="&lt;font style=&quot;font-size: 22px;&quot;&gt;-&lt;/font&gt;" style="edgeLabel;html=1;align=center;verticalAlign=middle;resizable=0;points=[];" parent="spzIzzq94ilCveR_RDpe-19" vertex="1" connectable="0">
          <mxGeometry x="-0.2657" y="1" relative="1" as="geometry">
            <mxPoint y="-14" as="offset" />
          </mxGeometry>
        </mxCell>
        <mxCell id="spzIzzq94ilCveR_RDpe-12" value="Success?" style="rhombus;fillColor=#ffffc0;strokeColor=#ff0000;" parent="1" vertex="1">
          <mxGeometry x="97" y="1294.25" width="134" height="55" as="geometry" />
        </mxCell>
        <mxCell id="spzIzzq94ilCveR_RDpe-22" style="edgeStyle=orthogonalEdgeStyle;rounded=0;orthogonalLoop=1;jettySize=auto;html=1;entryX=0.5;entryY=0;entryDx=0;entryDy=0;" parent="1" source="spzIzzq94ilCveR_RDpe-15" target="spzIzzq94ilCveR_RDpe-21" edge="1">
          <mxGeometry relative="1" as="geometry" />
        </mxCell>
        <mxCell id="spzIzzq94ilCveR_RDpe-15" value="Process batch" style="whiteSpace=wrap;html=1;align=center;" parent="1" vertex="1">
          <mxGeometry x="114" y="1424.25" width="100" height="40" as="geometry" />
        </mxCell>
        <mxCell id="spzIzzq94ilCveR_RDpe-18" value="Data Loader&lt;br&gt;Exception" style="ellipse;whiteSpace=wrap;html=1;align=center;fillColor=#f8cecc;strokeColor=#b85450;" parent="1" vertex="1">
          <mxGeometry x="-28" y="1384.25" width="100" height="40" as="geometry" />
        </mxCell>
        <mxCell id="spzIzzq94ilCveR_RDpe-25" style="edgeStyle=orthogonalEdgeStyle;rounded=0;orthogonalLoop=1;jettySize=auto;html=1;entryX=0.5;entryY=0;entryDx=0;entryDy=0;" parent="1" source="spzIzzq94ilCveR_RDpe-21" target="spzIzzq94ilCveR_RDpe-24" edge="1">
          <mxGeometry relative="1" as="geometry" />
        </mxCell>
        <mxCell id="spzIzzq94ilCveR_RDpe-26" value="&lt;font style=&quot;font-size: 22px;&quot;&gt;+&lt;/font&gt;" style="edgeLabel;html=1;align=center;verticalAlign=middle;resizable=0;points=[];" parent="spzIzzq94ilCveR_RDpe-25" vertex="1" connectable="0">
          <mxGeometry x="-0.2593" y="1" relative="1" as="geometry">
            <mxPoint as="offset" />
          </mxGeometry>
        </mxCell>
        <mxCell id="spzIzzq94ilCveR_RDpe-28" style="edgeStyle=orthogonalEdgeStyle;rounded=0;orthogonalLoop=1;jettySize=auto;html=1;entryX=0.5;entryY=0;entryDx=0;entryDy=0;" parent="1" source="spzIzzq94ilCveR_RDpe-21" target="spzIzzq94ilCveR_RDpe-27" edge="1">
          <mxGeometry relative="1" as="geometry" />
        </mxCell>
        <mxCell id="spzIzzq94ilCveR_RDpe-29" value="&lt;font style=&quot;font-size: 22px;&quot;&gt;-&lt;/font&gt;" style="edgeLabel;html=1;align=center;verticalAlign=middle;resizable=0;points=[];" parent="spzIzzq94ilCveR_RDpe-28" vertex="1" connectable="0">
          <mxGeometry x="-0.2362" y="1" relative="1" as="geometry">
            <mxPoint y="-13" as="offset" />
          </mxGeometry>
        </mxCell>
        <mxCell id="spzIzzq94ilCveR_RDpe-21" value="Success?" style="rhombus;fillColor=#ffffc0;strokeColor=#ff0000;" parent="1" vertex="1">
          <mxGeometry x="97" y="1479.25" width="134" height="55" as="geometry" />
        </mxCell>
        <mxCell id="spzIzzq94ilCveR_RDpe-31" style="edgeStyle=orthogonalEdgeStyle;rounded=0;orthogonalLoop=1;jettySize=auto;html=1;entryX=0.5;entryY=0;entryDx=0;entryDy=0;" parent="1" source="spzIzzq94ilCveR_RDpe-24" target="spzIzzq94ilCveR_RDpe-30" edge="1">
          <mxGeometry relative="1" as="geometry" />
        </mxCell>
        <mxCell id="spzIzzq94ilCveR_RDpe-24" value="Solve Graph" style="whiteSpace=wrap;html=1;align=center;" parent="1" vertex="1">
          <mxGeometry x="114" y="1604.25" width="100" height="40" as="geometry" />
        </mxCell>
        <mxCell id="spzIzzq94ilCveR_RDpe-27" value="Frontend&lt;br&gt;Exception" style="ellipse;whiteSpace=wrap;html=1;align=center;fillColor=#f8cecc;strokeColor=#b85450;" parent="1" vertex="1">
          <mxGeometry x="-28" y="1571.75" width="100" height="40" as="geometry" />
        </mxCell>
        <mxCell id="spzIzzq94ilCveR_RDpe-33" style="edgeStyle=orthogonalEdgeStyle;rounded=0;orthogonalLoop=1;jettySize=auto;html=1;entryX=0.5;entryY=0;entryDx=0;entryDy=0;" parent="1" source="spzIzzq94ilCveR_RDpe-30" target="spzIzzq94ilCveR_RDpe-32" edge="1">
          <mxGeometry relative="1" as="geometry" />
        </mxCell>
        <mxCell id="spzIzzq94ilCveR_RDpe-34" value="&lt;font style=&quot;font-size: 22px;&quot;&gt;+&lt;/font&gt;" style="edgeLabel;html=1;align=center;verticalAlign=middle;resizable=0;points=[];" parent="spzIzzq94ilCveR_RDpe-33" vertex="1" connectable="0">
          <mxGeometry x="-0.2747" y="2" relative="1" as="geometry">
            <mxPoint as="offset" />
          </mxGeometry>
        </mxCell>
        <mxCell id="spzIzzq94ilCveR_RDpe-36" style="edgeStyle=orthogonalEdgeStyle;rounded=0;orthogonalLoop=1;jettySize=auto;html=1;entryX=0.5;entryY=0;entryDx=0;entryDy=0;" parent="1" source="spzIzzq94ilCveR_RDpe-30" target="spzIzzq94ilCveR_RDpe-35" edge="1">
          <mxGeometry relative="1" as="geometry" />
        </mxCell>
        <mxCell id="spzIzzq94ilCveR_RDpe-37" value="&lt;font style=&quot;font-size: 22px;&quot;&gt;-&lt;/font&gt;" style="edgeLabel;html=1;align=center;verticalAlign=middle;resizable=0;points=[];" parent="spzIzzq94ilCveR_RDpe-36" vertex="1" connectable="0">
          <mxGeometry x="-0.2778" y="2" relative="1" as="geometry">
            <mxPoint x="4" y="-14" as="offset" />
          </mxGeometry>
        </mxCell>
        <mxCell id="spzIzzq94ilCveR_RDpe-30" value="Success?" style="rhombus;fillColor=#ffffc0;strokeColor=#ff0000;" parent="1" vertex="1">
          <mxGeometry x="97" y="1659.25" width="134" height="55" as="geometry" />
        </mxCell>
        <mxCell id="spzIzzq94ilCveR_RDpe-39" style="edgeStyle=orthogonalEdgeStyle;rounded=0;orthogonalLoop=1;jettySize=auto;html=1;entryX=0.5;entryY=0;entryDx=0;entryDy=0;" parent="1" source="spzIzzq94ilCveR_RDpe-32" target="spzIzzq94ilCveR_RDpe-38" edge="1">
          <mxGeometry relative="1" as="geometry" />
        </mxCell>
        <mxCell id="spzIzzq94ilCveR_RDpe-32" value="Save map" style="whiteSpace=wrap;html=1;align=center;" parent="1" vertex="1">
          <mxGeometry x="114" y="1794.25" width="100" height="40" as="geometry" />
        </mxCell>
        <mxCell id="spzIzzq94ilCveR_RDpe-35" value="Backend&lt;br&gt;Exception" style="ellipse;whiteSpace=wrap;html=1;align=center;fillColor=#f8cecc;strokeColor=#b85450;" parent="1" vertex="1">
          <mxGeometry x="-28" y="1744.25" width="100" height="40" as="geometry" />
        </mxCell>
        <mxCell id="spzIzzq94ilCveR_RDpe-41" style="edgeStyle=orthogonalEdgeStyle;rounded=0;orthogonalLoop=1;jettySize=auto;html=1;entryX=0.5;entryY=0;entryDx=0;entryDy=0;" parent="1" source="spzIzzq94ilCveR_RDpe-38" target="spzIzzq94ilCveR_RDpe-40" edge="1">
          <mxGeometry relative="1" as="geometry" />
        </mxCell>
        <mxCell id="spzIzzq94ilCveR_RDpe-44" value="&lt;font style=&quot;font-size: 22px;&quot;&gt;+&lt;/font&gt;" style="edgeLabel;html=1;align=center;verticalAlign=middle;resizable=0;points=[];" parent="spzIzzq94ilCveR_RDpe-41" vertex="1" connectable="0">
          <mxGeometry x="-0.2578" y="1" relative="1" as="geometry">
            <mxPoint as="offset" />
          </mxGeometry>
        </mxCell>
        <mxCell id="spzIzzq94ilCveR_RDpe-43" style="edgeStyle=orthogonalEdgeStyle;rounded=0;orthogonalLoop=1;jettySize=auto;html=1;entryX=0.5;entryY=0;entryDx=0;entryDy=0;" parent="1" source="spzIzzq94ilCveR_RDpe-38" target="spzIzzq94ilCveR_RDpe-42" edge="1">
          <mxGeometry relative="1" as="geometry" />
        </mxCell>
        <mxCell id="spzIzzq94ilCveR_RDpe-45" value="&lt;font style=&quot;font-size: 22px;&quot;&gt;-&lt;/font&gt;" style="edgeLabel;html=1;align=center;verticalAlign=middle;resizable=0;points=[];" parent="spzIzzq94ilCveR_RDpe-43" vertex="1" connectable="0">
          <mxGeometry x="-0.1207" y="1" relative="1" as="geometry">
            <mxPoint y="-6" as="offset" />
          </mxGeometry>
        </mxCell>
        <mxCell id="spzIzzq94ilCveR_RDpe-38" value="Success?" style="rhombus;fillColor=#ffffc0;strokeColor=#ff0000;" parent="1" vertex="1">
          <mxGeometry x="97" y="1851.75" width="134" height="55" as="geometry" />
        </mxCell>
        <mxCell id="spzIzzq94ilCveR_RDpe-40" value="Finish" style="ellipse;whiteSpace=wrap;html=1;align=center;fillColor=#0050ef;strokeColor=#001DBC;fontColor=#ffffff;" parent="1" vertex="1">
          <mxGeometry x="114" y="1984.25" width="100" height="40" as="geometry" />
        </mxCell>
        <mxCell id="spzIzzq94ilCveR_RDpe-42" value="Map Manager&lt;br&gt;Exception" style="ellipse;whiteSpace=wrap;html=1;align=center;fillColor=#f8cecc;strokeColor=#b85450;" parent="1" vertex="1">
          <mxGeometry x="-28" y="1934.25" width="100" height="40" as="geometry" />
        </mxCell>
        <mxCell id="SyLNdEtbc1PO9mZHytDg-3" value="&lt;font color=&quot;#ea6b66&quot; style=&quot;font-size: 16px;&quot;&gt;What should be taken into account for long-term persective&amp;nbsp;&lt;/font&gt;" style="swimlane;fontStyle=0;childLayout=stackLayout;horizontal=1;startSize=30;horizontalStack=0;resizeParent=1;resizeParentMax=0;resizeLast=0;collapsible=1;marginBottom=0;whiteSpace=wrap;html=1;" parent="1" vertex="1">
          <mxGeometry x="-2310" y="1664" width="570" height="180" as="geometry" />
        </mxCell>
        <mxCell id="SyLNdEtbc1PO9mZHytDg-4" value="1) How to merge several maps" style="text;strokeColor=none;fillColor=none;align=left;verticalAlign=middle;spacingLeft=4;spacingRight=4;overflow=hidden;points=[[0,0.5],[1,0.5]];portConstraint=eastwest;rotatable=0;whiteSpace=wrap;html=1;" parent="SyLNdEtbc1PO9mZHytDg-3" vertex="1">
          <mxGeometry y="30" width="570" height="30" as="geometry" />
        </mxCell>
        <mxCell id="SyLNdEtbc1PO9mZHytDg-5" value="2) How to fuse graph-based maps with DL-based" style="text;strokeColor=none;fillColor=none;align=left;verticalAlign=middle;spacingLeft=4;spacingRight=4;overflow=hidden;points=[[0,0.5],[1,0.5]];portConstraint=eastwest;rotatable=0;whiteSpace=wrap;html=1;" parent="SyLNdEtbc1PO9mZHytDg-3" vertex="1">
          <mxGeometry y="60" width="570" height="30" as="geometry" />
        </mxCell>
        <mxCell id="SyLNdEtbc1PO9mZHytDg-6" value="3) How to create graph based on: distances, time ,smth else&amp;nbsp;" style="text;strokeColor=none;fillColor=none;align=left;verticalAlign=middle;spacingLeft=4;spacingRight=4;overflow=hidden;points=[[0,0.5],[1,0.5]];portConstraint=eastwest;rotatable=0;whiteSpace=wrap;html=1;" parent="SyLNdEtbc1PO9mZHytDg-3" vertex="1">
          <mxGeometry y="90" width="570" height="30" as="geometry" />
        </mxCell>
        <mxCell id="SyLNdEtbc1PO9mZHytDg-14" value="4) How to fuse several same sensors: loosely/titly coupled (more then 1 imu)&amp;nbsp;" style="text;strokeColor=none;fillColor=none;align=left;verticalAlign=middle;spacingLeft=4;spacingRight=4;overflow=hidden;points=[[0,0.5],[1,0.5]];portConstraint=eastwest;rotatable=0;whiteSpace=wrap;html=1;" parent="SyLNdEtbc1PO9mZHytDg-3" vertex="1">
          <mxGeometry y="120" width="570" height="30" as="geometry" />
        </mxCell>
        <mxCell id="SyLNdEtbc1PO9mZHytDg-15" value="5)&amp;nbsp;" style="text;strokeColor=none;fillColor=none;align=left;verticalAlign=middle;spacingLeft=4;spacingRight=4;overflow=hidden;points=[[0,0.5],[1,0.5]];portConstraint=eastwest;rotatable=0;whiteSpace=wrap;html=1;" parent="SyLNdEtbc1PO9mZHytDg-3" vertex="1">
          <mxGeometry y="150" width="570" height="30" as="geometry" />
        </mxCell>
        <mxCell id="SyLNdEtbc1PO9mZHytDg-20" style="edgeStyle=orthogonalEdgeStyle;rounded=0;orthogonalLoop=1;jettySize=auto;html=1;exitX=1;exitY=0.5;exitDx=0;exitDy=0;entryX=0;entryY=0.5;entryDx=0;entryDy=0;" parent="1" source="SyLNdEtbc1PO9mZHytDg-16" target="Sj2925MPbV6JyILS4WiL-32" edge="1">
          <mxGeometry relative="1" as="geometry" />
        </mxCell>
        <mxCell id="SyLNdEtbc1PO9mZHytDg-16" value="&lt;div&gt;Graph Builder&lt;/div&gt;" style="rounded=0;whiteSpace=wrap;html=1;fillColor=#dae8fc;strokeColor=#6c8ebf;" parent="1" vertex="1">
          <mxGeometry x="-1016.5" y="232.75" width="60" height="81.5" as="geometry" />
        </mxCell>
        <mxCell id="SyLNdEtbc1PO9mZHytDg-35" style="edgeStyle=orthogonalEdgeStyle;rounded=0;orthogonalLoop=1;jettySize=auto;html=1;exitX=1;exitY=0.5;exitDx=0;exitDy=0;entryX=0;entryY=0.5;entryDx=0;entryDy=0;" parent="1" source="SyLNdEtbc1PO9mZHytDg-17" target="SyLNdEtbc1PO9mZHytDg-34" edge="1">
          <mxGeometry relative="1" as="geometry" />
        </mxCell>
        <mxCell id="SyLNdEtbc1PO9mZHytDg-17" value="&amp;nbsp;data processor" style="rounded=0;whiteSpace=wrap;html=1;fillColor=#dae8fc;strokeColor=#6c8ebf;" parent="1" vertex="1">
          <mxGeometry x="-1212.5" y="233.5" width="60" height="81" as="geometry" />
        </mxCell>
        <mxCell id="SyLNdEtbc1PO9mZHytDg-23" value="" style="shape=flexArrow;endArrow=classic;startArrow=classic;html=1;rounded=0;entryX=0.5;entryY=1;entryDx=0;entryDy=0;startWidth=11.666666666666668;startSize=3.558333333333333;endWidth=11.666666666666668;endSize=3.558333333333333;width=5.833333333333334;exitX=0.5;exitY=0;exitDx=0;exitDy=0;" parent="1" source="SyLNdEtbc1PO9mZHytDg-34" target="Sj2925MPbV6JyILS4WiL-40" edge="1">
          <mxGeometry width="100" height="100" relative="1" as="geometry">
            <mxPoint x="-1103.5" y="211" as="sourcePoint" />
            <mxPoint x="-1054.5" y="164" as="targetPoint" />
          </mxGeometry>
        </mxCell>
        <mxCell id="KpYmoEpn27h0bMTAHkpe-10" style="edgeStyle=orthogonalEdgeStyle;rounded=0;orthogonalLoop=1;jettySize=auto;html=1;entryX=0.547;entryY=0.999;entryDx=0;entryDy=0;entryPerimeter=0;" parent="1" source="SyLNdEtbc1PO9mZHytDg-28" target="KpYmoEpn27h0bMTAHkpe-9" edge="1">
          <mxGeometry relative="1" as="geometry">
            <Array as="points">
              <mxPoint x="-985" y="503" />
              <mxPoint x="-1583" y="503" />
            </Array>
          </mxGeometry>
        </mxCell>
        <mxCell id="SyLNdEtbc1PO9mZHytDg-28" value="Synchronizer" style="rounded=1;whiteSpace=wrap;html=1;fillColor=#dae8fc;strokeColor=#6c8ebf;" parent="1" vertex="1">
          <mxGeometry x="-1026.5" y="373" width="90" height="36" as="geometry" />
        </mxCell>
        <mxCell id="SyLNdEtbc1PO9mZHytDg-37" style="edgeStyle=orthogonalEdgeStyle;rounded=0;orthogonalLoop=1;jettySize=auto;html=1;exitX=1;exitY=0.5;exitDx=0;exitDy=0;entryX=0;entryY=0.5;entryDx=0;entryDy=0;" parent="1" source="SyLNdEtbc1PO9mZHytDg-34" target="SyLNdEtbc1PO9mZHytDg-16" edge="1">
          <mxGeometry relative="1" as="geometry" />
        </mxCell>
        <mxCell id="SyLNdEtbc1PO9mZHytDg-38" style="edgeStyle=orthogonalEdgeStyle;rounded=0;orthogonalLoop=1;jettySize=auto;html=1;exitX=1;exitY=0.5;exitDx=0;exitDy=0;entryX=0;entryY=0.5;entryDx=0;entryDy=0;" parent="1" source="SyLNdEtbc1PO9mZHytDg-34" target="SyLNdEtbc1PO9mZHytDg-28" edge="1">
          <mxGeometry relative="1" as="geometry" />
        </mxCell>
        <mxCell id="SyLNdEtbc1PO9mZHytDg-34" value="factors collector" style="rounded=1;whiteSpace=wrap;html=1;fillColor=#dae8fc;strokeColor=#6c8ebf;" parent="1" vertex="1">
          <mxGeometry x="-1124.5" y="255.5" width="50" height="36" as="geometry" />
        </mxCell>
        <mxCell id="Fp7a3wf5ypDkZVI3N4Gd-1" value="&lt;font style=&quot;font-size: 10px;&quot;&gt;Element 2&lt;/font&gt;" style="text;html=1;strokeColor=none;fillColor=none;align=center;verticalAlign=middle;whiteSpace=wrap;rounded=0;" parent="1" vertex="1">
          <mxGeometry x="-1393" y="189" width="55" height="10" as="geometry" />
        </mxCell>
        <mxCell id="Fp7a3wf5ypDkZVI3N4Gd-2" value="&lt;font style=&quot;font-size: 10px;&quot;&gt;Element 3&lt;/font&gt;" style="text;html=1;strokeColor=none;fillColor=none;align=center;verticalAlign=middle;whiteSpace=wrap;rounded=0;" parent="1" vertex="1">
          <mxGeometry x="-1393" y="215" width="55" height="10" as="geometry" />
        </mxCell>
        <mxCell id="Fp7a3wf5ypDkZVI3N4Gd-4" value="&lt;font style=&quot;font-size: 10px;&quot;&gt;File 2&lt;/font&gt;" style="text;html=1;strokeColor=none;fillColor=none;align=center;verticalAlign=middle;whiteSpace=wrap;rounded=0;" parent="1" vertex="1">
          <mxGeometry x="-1894.5" y="250" width="41" height="10" as="geometry" />
        </mxCell>
        <mxCell id="Fp7a3wf5ypDkZVI3N4Gd-5" value="&lt;font style=&quot;font-size: 10px;&quot;&gt;File K&lt;/font&gt;" style="text;html=1;strokeColor=none;fillColor=none;align=center;verticalAlign=middle;whiteSpace=wrap;rounded=0;" parent="1" vertex="1">
          <mxGeometry x="-1894.5" y="322" width="41" height="10" as="geometry" />
        </mxCell>
        <mxCell id="Fp7a3wf5ypDkZVI3N4Gd-6" value="&lt;font color=&quot;#ea6b66&quot;&gt;&lt;span style=&quot;font-size: 16px;&quot;&gt;Regims for batch creation with measurements&lt;/span&gt;&lt;/font&gt;" style="swimlane;fontStyle=0;childLayout=stackLayout;horizontal=1;startSize=30;horizontalStack=0;resizeParent=1;resizeParentMax=0;resizeLast=0;collapsible=1;marginBottom=0;whiteSpace=wrap;html=1;" parent="1" vertex="1">
          <mxGeometry x="-1698.38" y="1664" width="570" height="129" as="geometry" />
        </mxCell>
        <mxCell id="Fp7a3wf5ypDkZVI3N4Gd-7" value="1) List of measurements: list [measurement_i, .... ,measurement_k]" style="text;strokeColor=none;fillColor=none;align=left;verticalAlign=middle;spacingLeft=4;spacingRight=4;overflow=hidden;points=[[0,0.5],[1,0.5]];portConstraint=eastwest;rotatable=0;whiteSpace=wrap;html=1;" parent="Fp7a3wf5ypDkZVI3N4Gd-6" vertex="1">
          <mxGeometry y="30" width="570" height="30" as="geometry" />
        </mxCell>
        <mxCell id="Fp7a3wf5ypDkZVI3N4Gd-8" value="2) List of measurements in range: [ {&quot;sensor&quot;:&#39;imu_1&#39;,&lt;br&gt;&lt;span style=&quot;&quot;&gt; &lt;/span&gt;&lt;span style=&quot;&quot;&gt; &lt;/span&gt;&lt;span style=&quot;&quot;&gt; &lt;/span&gt;&lt;span style=&quot;&quot;&gt; &lt;/span&gt;&lt;span style=&quot;&quot;&gt; &lt;/span&gt;&lt;span style=&quot;&quot;&gt; &lt;/span&gt;&lt;span style=&quot;&quot;&gt; &lt;/span&gt;&amp;nbsp;&lt;span style=&quot;&quot;&gt; &lt;span style=&quot;white-space: pre;&quot;&gt; &lt;/span&gt;&lt;span style=&quot;white-space: pre;&quot;&gt; &lt;/span&gt;&lt;span style=&quot;white-space: pre;&quot;&gt; &lt;/span&gt;&lt;span style=&quot;white-space: pre;&quot;&gt; &lt;/span&gt;&lt;span style=&quot;white-space: pre;&quot;&gt; &lt;/span&gt;&lt;span style=&quot;white-space: pre;&quot;&gt; &lt;/span&gt;&lt;span style=&quot;white-space: pre;&quot;&gt; &lt;/span&gt;&lt;/span&gt;&lt;span style=&quot;&quot;&gt;&amp;nbsp;&quot;&lt;/span&gt;&lt;span style=&quot;&quot;&gt;&lt;/span&gt;&lt;span style=&quot;&quot;&gt;&lt;/span&gt;&lt;span style=&quot;&quot;&gt;&lt;/span&gt;&lt;span style=&quot;&quot;&gt;&lt;/span&gt;range&quot;: (time_i, time_j) },&amp;nbsp;&lt;br&gt;&lt;span style=&quot;&quot;&gt; &lt;/span&gt;&lt;span style=&quot;&quot;&gt; &lt;/span&gt;&lt;span style=&quot;&quot;&gt; &lt;/span&gt;&lt;span style=&quot;&quot;&gt; &lt;/span&gt;&lt;span style=&quot;white-space: pre;&quot;&gt; &lt;/span&gt;&lt;span style=&quot;white-space: pre;&quot;&gt; &lt;/span&gt;&lt;span style=&quot;white-space: pre;&quot;&gt; &lt;/span&gt;&lt;span style=&quot;white-space: pre;&quot;&gt; &lt;/span&gt;&lt;span style=&quot;white-space: pre;&quot;&gt; &lt;/span&gt;&lt;span style=&quot;white-space: pre;&quot;&gt; &lt;/span&gt;&lt;span style=&quot;white-space: pre;&quot;&gt; &lt;/span&gt;&amp;nbsp;{&quot;sensor&quot;:&#39;encoder_2&#39;,&lt;br style=&quot;border-color: var(--border-color);&quot;&gt; &lt;span style=&quot;border-color: var(--border-color);&quot;&gt; &lt;/span&gt;&lt;span style=&quot;border-color: var(--border-color);&quot;&gt; &lt;/span&gt;&lt;span style=&quot;border-color: var(--border-color);&quot;&gt; &lt;/span&gt;&lt;span style=&quot;border-color: var(--border-color);&quot;&gt; &lt;/span&gt;&lt;span style=&quot;border-color: var(--border-color);&quot;&gt; &lt;/span&gt;&lt;span style=&quot;border-color: var(--border-color);&quot;&gt; &lt;/span&gt;&amp;nbsp;&lt;span style=&quot;border-color: var(--border-color);&quot;&gt; &lt;span style=&quot;white-space: pre;&quot;&gt; &lt;/span&gt;&lt;span style=&quot;white-space: pre;&quot;&gt; &lt;/span&gt;&lt;span style=&quot;white-space: pre;&quot;&gt; &lt;/span&gt;&lt;span style=&quot;white-space: pre;&quot;&gt; &lt;/span&gt;&lt;span style=&quot;white-space: pre;&quot;&gt; &lt;/span&gt;&lt;span style=&quot;white-space: pre;&quot;&gt; &lt;/span&gt;&lt;span style=&quot;white-space: pre;&quot;&gt; &lt;/span&gt;&lt;/span&gt;&lt;span style=&quot;border-color: var(--border-color);&quot;&gt;&amp;nbsp; &quot;&lt;/span&gt;range&quot;: (idx_i, idx_j) , ]" style="text;strokeColor=none;fillColor=none;align=left;verticalAlign=middle;spacingLeft=4;spacingRight=4;overflow=hidden;points=[[0,0.5],[1,0.5]];portConstraint=eastwest;rotatable=0;whiteSpace=wrap;html=1;" parent="Fp7a3wf5ypDkZVI3N4Gd-6" vertex="1">
          <mxGeometry y="60" width="570" height="69" as="geometry" />
        </mxCell>
        <mxCell id="Fp7a3wf5ypDkZVI3N4Gd-19" value="&lt;font color=&quot;#ea6b66&quot;&gt;&lt;span style=&quot;font-size: 16px;&quot;&gt;Loop closing procedure&lt;/span&gt;&lt;/font&gt;" style="swimlane;fontStyle=0;childLayout=stackLayout;horizontal=1;startSize=30;horizontalStack=0;resizeParent=1;resizeParentMax=0;resizeLast=0;collapsible=1;marginBottom=0;whiteSpace=wrap;html=1;" parent="1" vertex="1">
          <mxGeometry x="-1698.38" y="1816" width="570" height="229" as="geometry" />
        </mxCell>
        <mxCell id="Fp7a3wf5ypDkZVI3N4Gd-20" value="1) LoopClosure.start()&lt;br&gt;2) DataManager.save_current_iterator() and delete batch&lt;br&gt;3) LoopClosure.find_candidates()&lt;br&gt;4) DataManager.create_batch_with_measurements(args)&lt;br&gt;5) LoopClosure.find_loops()&lt;br&gt;6) AnomalyDetector.check_candidates()&lt;br&gt;7) Graph.add()&lt;br&gt;8) Solver.solve()&lt;br&gt;9) goto 1 until no candidates&lt;br&gt;10) DataManager.continue()" style="text;strokeColor=none;fillColor=none;align=left;verticalAlign=middle;spacingLeft=4;spacingRight=4;overflow=hidden;points=[[0,0.5],[1,0.5]];portConstraint=eastwest;rotatable=0;whiteSpace=wrap;html=1;" parent="Fp7a3wf5ypDkZVI3N4Gd-19" vertex="1">
          <mxGeometry y="30" width="570" height="199" as="geometry" />
        </mxCell>
        <mxCell id="Fp7a3wf5ypDkZVI3N4Gd-21" style="edgeStyle=orthogonalEdgeStyle;rounded=0;orthogonalLoop=1;jettySize=auto;html=1;entryX=0;entryY=0.5;entryDx=0;entryDy=0;" parent="1" source="Fp7a3wf5ypDkZVI3N4Gd-22" target="Fp7a3wf5ypDkZVI3N4Gd-24" edge="1">
          <mxGeometry relative="1" as="geometry" />
        </mxCell>
        <mxCell id="Fp7a3wf5ypDkZVI3N4Gd-22" value="" style="rounded=0;whiteSpace=wrap;html=1;fillColor=#ffe6cc;strokeColor=#d79b00;" parent="1" vertex="1">
          <mxGeometry x="-2156.25" y="2142" width="70" height="140" as="geometry" />
        </mxCell>
        <mxCell id="Fp7a3wf5ypDkZVI3N4Gd-43" style="edgeStyle=orthogonalEdgeStyle;rounded=0;orthogonalLoop=1;jettySize=auto;html=1;" parent="1" source="Fp7a3wf5ypDkZVI3N4Gd-24" target="Fp7a3wf5ypDkZVI3N4Gd-42" edge="1">
          <mxGeometry relative="1" as="geometry" />
        </mxCell>
        <mxCell id="Fp7a3wf5ypDkZVI3N4Gd-24" value="&lt;div&gt;Measurement Processor&lt;/div&gt;" style="rounded=0;whiteSpace=wrap;html=1;fillColor=#dae8fc;strokeColor=#6c8ebf;" parent="1" vertex="1">
          <mxGeometry x="-2009.25" y="2177" width="100" height="70" as="geometry" />
        </mxCell>
        <mxCell id="Fp7a3wf5ypDkZVI3N4Gd-31" value="" style="endArrow=none;html=1;rounded=0;entryX=1;entryY=0.25;entryDx=0;entryDy=0;exitX=0;exitY=0.25;exitDx=0;exitDy=0;" parent="1" source="Fp7a3wf5ypDkZVI3N4Gd-22" target="Fp7a3wf5ypDkZVI3N4Gd-22" edge="1">
          <mxGeometry width="50" height="50" relative="1" as="geometry">
            <mxPoint x="-2176.25" y="2212.5" as="sourcePoint" />
            <mxPoint x="-2107.25" y="2211.5" as="targetPoint" />
          </mxGeometry>
        </mxCell>
        <mxCell id="Fp7a3wf5ypDkZVI3N4Gd-32" value="" style="endArrow=none;html=1;rounded=0;entryX=1;entryY=0.5;entryDx=0;entryDy=0;exitX=0;exitY=0.5;exitDx=0;exitDy=0;" parent="1" source="Fp7a3wf5ypDkZVI3N4Gd-22" target="Fp7a3wf5ypDkZVI3N4Gd-22" edge="1">
          <mxGeometry width="50" height="50" relative="1" as="geometry">
            <mxPoint x="-2173.25" y="2187" as="sourcePoint" />
            <mxPoint x="-2103.25" y="2187" as="targetPoint" />
          </mxGeometry>
        </mxCell>
        <mxCell id="Fp7a3wf5ypDkZVI3N4Gd-33" value="" style="endArrow=none;html=1;rounded=0;entryX=1;entryY=0.75;entryDx=0;entryDy=0;exitX=0;exitY=0.75;exitDx=0;exitDy=0;" parent="1" source="Fp7a3wf5ypDkZVI3N4Gd-22" target="Fp7a3wf5ypDkZVI3N4Gd-22" edge="1">
          <mxGeometry width="50" height="50" relative="1" as="geometry">
            <mxPoint x="-2163.25" y="2197" as="sourcePoint" />
            <mxPoint x="-2093.25" y="2197" as="targetPoint" />
          </mxGeometry>
        </mxCell>
        <mxCell id="Fp7a3wf5ypDkZVI3N4Gd-34" value="&lt;font style=&quot;font-size: 10px;&quot;&gt;Element 1&lt;/font&gt;" style="text;html=1;strokeColor=none;fillColor=none;align=center;verticalAlign=middle;whiteSpace=wrap;rounded=0;" parent="1" vertex="1">
          <mxGeometry x="-2146" y="2154" width="49.5" height="10" as="geometry" />
        </mxCell>
        <mxCell id="Fp7a3wf5ypDkZVI3N4Gd-35" value="Batch" style="text;html=1;strokeColor=none;fillColor=none;align=center;verticalAlign=middle;whiteSpace=wrap;rounded=0;" parent="1" vertex="1">
          <mxGeometry x="-2139.25" y="2125" width="36" height="15" as="geometry" />
        </mxCell>
        <mxCell id="Fp7a3wf5ypDkZVI3N4Gd-38" value="&lt;font style=&quot;font-size: 10px;&quot;&gt;Element 2&lt;/font&gt;" style="text;html=1;strokeColor=none;fillColor=none;align=center;verticalAlign=middle;whiteSpace=wrap;rounded=0;" parent="1" vertex="1">
          <mxGeometry x="-2146" y="2189" width="49.5" height="10" as="geometry" />
        </mxCell>
        <mxCell id="Fp7a3wf5ypDkZVI3N4Gd-39" value="&lt;font style=&quot;font-size: 10px;&quot;&gt;Element 3&lt;/font&gt;" style="text;html=1;strokeColor=none;fillColor=none;align=center;verticalAlign=middle;whiteSpace=wrap;rounded=0;" parent="1" vertex="1">
          <mxGeometry x="-2146" y="2222" width="49.5" height="10" as="geometry" />
        </mxCell>
        <mxCell id="Fp7a3wf5ypDkZVI3N4Gd-40" value="&lt;font style=&quot;font-size: 10px;&quot;&gt;Element k&lt;/font&gt;" style="text;html=1;strokeColor=none;fillColor=none;align=center;verticalAlign=middle;whiteSpace=wrap;rounded=0;" parent="1" vertex="1">
          <mxGeometry x="-2146" y="2255" width="49.5" height="10" as="geometry" />
        </mxCell>
        <mxCell id="Fp7a3wf5ypDkZVI3N4Gd-47" style="edgeStyle=orthogonalEdgeStyle;rounded=0;orthogonalLoop=1;jettySize=auto;html=1;" parent="1" source="Fp7a3wf5ypDkZVI3N4Gd-42" target="Fp7a3wf5ypDkZVI3N4Gd-46" edge="1">
          <mxGeometry relative="1" as="geometry" />
        </mxCell>
        <mxCell id="Fp7a3wf5ypDkZVI3N4Gd-42" value="&lt;div&gt;Factor Creator&lt;/div&gt;" style="rounded=0;whiteSpace=wrap;html=1;fillColor=#dae8fc;strokeColor=#6c8ebf;" parent="1" vertex="1">
          <mxGeometry x="-1823.25" y="2177" width="89" height="70" as="geometry" />
        </mxCell>
        <mxCell id="Fp7a3wf5ypDkZVI3N4Gd-44" value="Elements" style="text;html=1;strokeColor=none;fillColor=none;align=center;verticalAlign=middle;whiteSpace=wrap;rounded=0;" parent="1" vertex="1">
          <mxGeometry x="-2076.25" y="2181" width="60" height="30" as="geometry" />
        </mxCell>
        <mxCell id="Fp7a3wf5ypDkZVI3N4Gd-45" value="measurements" style="text;html=1;strokeColor=none;fillColor=none;align=center;verticalAlign=middle;whiteSpace=wrap;rounded=0;" parent="1" vertex="1">
          <mxGeometry x="-1896.25" y="2181" width="60" height="30" as="geometry" />
        </mxCell>
        <mxCell id="Fp7a3wf5ypDkZVI3N4Gd-52" style="edgeStyle=orthogonalEdgeStyle;rounded=0;orthogonalLoop=1;jettySize=auto;html=1;entryX=0;entryY=0.5;entryDx=0;entryDy=0;" parent="1" source="Fp7a3wf5ypDkZVI3N4Gd-46" target="Fp7a3wf5ypDkZVI3N4Gd-51" edge="1">
          <mxGeometry relative="1" as="geometry" />
        </mxCell>
        <mxCell id="Fp7a3wf5ypDkZVI3N4Gd-46" value="&lt;div&gt;Amomaly Detector&lt;/div&gt;" style="rounded=0;whiteSpace=wrap;html=1;fillColor=#dae8fc;strokeColor=#6c8ebf;" parent="1" vertex="1">
          <mxGeometry x="-1654.25" y="2177" width="89" height="70" as="geometry" />
        </mxCell>
        <mxCell id="Fp7a3wf5ypDkZVI3N4Gd-48" value="factors" style="text;html=1;strokeColor=none;fillColor=none;align=center;verticalAlign=middle;whiteSpace=wrap;rounded=0;" parent="1" vertex="1">
          <mxGeometry x="-1731.25" y="2181" width="60" height="30" as="geometry" />
        </mxCell>
        <mxCell id="Fp7a3wf5ypDkZVI3N4Gd-50" style="edgeStyle=orthogonalEdgeStyle;rounded=0;orthogonalLoop=1;jettySize=auto;html=1;" parent="1" source="Fp7a3wf5ypDkZVI3N4Gd-49" target="Fp7a3wf5ypDkZVI3N4Gd-46" edge="1">
          <mxGeometry relative="1" as="geometry" />
        </mxCell>
        <mxCell id="Fp7a3wf5ypDkZVI3N4Gd-49" value="Graph" style="text;html=1;strokeColor=none;fillColor=none;align=center;verticalAlign=middle;whiteSpace=wrap;rounded=0;" parent="1" vertex="1">
          <mxGeometry x="-1594.25" y="2102" width="60" height="30" as="geometry" />
        </mxCell>
        <mxCell id="Fp7a3wf5ypDkZVI3N4Gd-55" style="edgeStyle=orthogonalEdgeStyle;rounded=0;orthogonalLoop=1;jettySize=auto;html=1;" parent="1" source="Fp7a3wf5ypDkZVI3N4Gd-51" target="Fp7a3wf5ypDkZVI3N4Gd-54" edge="1">
          <mxGeometry relative="1" as="geometry" />
        </mxCell>
        <mxCell id="Fp7a3wf5ypDkZVI3N4Gd-51" value="Graph Builder" style="rounded=0;whiteSpace=wrap;html=1;fillColor=#dae8fc;strokeColor=#6c8ebf;" parent="1" vertex="1">
          <mxGeometry x="-1492.25" y="2177" width="89" height="70" as="geometry" />
        </mxCell>
        <mxCell id="Fp7a3wf5ypDkZVI3N4Gd-53" value="factors" style="text;html=1;strokeColor=none;fillColor=none;align=center;verticalAlign=middle;whiteSpace=wrap;rounded=0;" parent="1" vertex="1">
          <mxGeometry x="-1565.25" y="2179" width="60" height="30" as="geometry" />
        </mxCell>
        <mxCell id="Fp7a3wf5ypDkZVI3N4Gd-65" style="edgeStyle=orthogonalEdgeStyle;rounded=0;orthogonalLoop=1;jettySize=auto;html=1;" parent="1" source="Fp7a3wf5ypDkZVI3N4Gd-54" target="Fp7a3wf5ypDkZVI3N4Gd-64" edge="1">
          <mxGeometry relative="1" as="geometry" />
        </mxCell>
        <mxCell id="Fp7a3wf5ypDkZVI3N4Gd-54" value="Solver" style="rounded=0;whiteSpace=wrap;html=1;fillColor=#d5e8d4;strokeColor=#82b366;" parent="1" vertex="1">
          <mxGeometry x="-1340.25" y="2177" width="89" height="70" as="geometry" />
        </mxCell>
        <mxCell id="Fp7a3wf5ypDkZVI3N4Gd-56" value="Graph" style="text;html=1;strokeColor=none;fillColor=none;align=center;verticalAlign=middle;whiteSpace=wrap;rounded=0;" parent="1" vertex="1">
          <mxGeometry x="-1403.25" y="2181" width="60" height="30" as="geometry" />
        </mxCell>
        <mxCell id="Fp7a3wf5ypDkZVI3N4Gd-76" style="edgeStyle=orthogonalEdgeStyle;rounded=0;orthogonalLoop=1;jettySize=auto;html=1;" parent="1" source="Fp7a3wf5ypDkZVI3N4Gd-58" target="Fp7a3wf5ypDkZVI3N4Gd-71" edge="1">
          <mxGeometry relative="1" as="geometry" />
        </mxCell>
        <mxCell id="Fp7a3wf5ypDkZVI3N4Gd-86" style="edgeStyle=orthogonalEdgeStyle;rounded=0;orthogonalLoop=1;jettySize=auto;html=1;" parent="1" source="Fp7a3wf5ypDkZVI3N4Gd-58" target="Fp7a3wf5ypDkZVI3N4Gd-83" edge="1">
          <mxGeometry relative="1" as="geometry">
            <Array as="points">
              <mxPoint x="-1155.25" y="2456" />
              <mxPoint x="-2260.25" y="2456" />
            </Array>
          </mxGeometry>
        </mxCell>
        <mxCell id="Fp7a3wf5ypDkZVI3N4Gd-58" value="Loop Closing" style="rounded=0;whiteSpace=wrap;html=1;fillColor=#dae8fc;strokeColor=#6c8ebf;" parent="1" vertex="1">
          <mxGeometry x="-1200.25" y="2308" width="89" height="70" as="geometry" />
        </mxCell>
        <mxCell id="Fp7a3wf5ypDkZVI3N4Gd-60" value="Graph" style="text;html=1;strokeColor=none;fillColor=none;align=center;verticalAlign=middle;whiteSpace=wrap;rounded=0;" parent="1" vertex="1">
          <mxGeometry x="-1253.25" y="2181" width="60" height="30" as="geometry" />
        </mxCell>
        <mxCell id="Fp7a3wf5ypDkZVI3N4Gd-61" value="Map Updater" style="rounded=0;whiteSpace=wrap;html=1;fillColor=#f8cecc;strokeColor=#b85450;" parent="1" vertex="1">
          <mxGeometry x="-1070.25" y="2177" width="89" height="70" as="geometry" />
        </mxCell>
        <mxCell id="Fp7a3wf5ypDkZVI3N4Gd-67" style="edgeStyle=orthogonalEdgeStyle;rounded=0;orthogonalLoop=1;jettySize=auto;html=1;" parent="1" source="Fp7a3wf5ypDkZVI3N4Gd-64" target="Fp7a3wf5ypDkZVI3N4Gd-58" edge="1">
          <mxGeometry relative="1" as="geometry" />
        </mxCell>
        <mxCell id="Fp7a3wf5ypDkZVI3N4Gd-68" style="edgeStyle=orthogonalEdgeStyle;rounded=0;orthogonalLoop=1;jettySize=auto;html=1;" parent="1" source="Fp7a3wf5ypDkZVI3N4Gd-64" target="Fp7a3wf5ypDkZVI3N4Gd-61" edge="1">
          <mxGeometry relative="1" as="geometry" />
        </mxCell>
        <mxCell id="Fp7a3wf5ypDkZVI3N4Gd-64" value="" style="html=1;shape=mxgraph.electrical.electro-mechanical.singleSwitch;aspect=fixed;elSwitchState=off;" parent="1" vertex="1">
          <mxGeometry x="-1193.25" y="2202" width="75" height="20" as="geometry" />
        </mxCell>
        <mxCell id="Fp7a3wf5ypDkZVI3N4Gd-75" style="edgeStyle=orthogonalEdgeStyle;rounded=0;orthogonalLoop=1;jettySize=auto;html=1;" parent="1" source="Fp7a3wf5ypDkZVI3N4Gd-71" target="Fp7a3wf5ypDkZVI3N4Gd-24" edge="1">
          <mxGeometry relative="1" as="geometry" />
        </mxCell>
        <mxCell id="Fp7a3wf5ypDkZVI3N4Gd-71" value="Frontend Manager" style="rounded=0;whiteSpace=wrap;html=1;fillColor=#dae8fc;strokeColor=#6c8ebf;" parent="1" vertex="1">
          <mxGeometry x="-1737.25" y="2308" width="100" height="70" as="geometry" />
        </mxCell>
        <mxCell id="Fp7a3wf5ypDkZVI3N4Gd-79" value="request" style="text;html=1;strokeColor=none;fillColor=none;align=center;verticalAlign=middle;whiteSpace=wrap;rounded=0;" parent="1" vertex="1">
          <mxGeometry x="-1727.25" y="2423" width="60" height="30" as="geometry" />
        </mxCell>
        <mxCell id="Fp7a3wf5ypDkZVI3N4Gd-81" value="request" style="text;html=1;strokeColor=none;fillColor=none;align=center;verticalAlign=middle;whiteSpace=wrap;rounded=0;" parent="1" vertex="1">
          <mxGeometry x="-1451.25" y="2303" width="60" height="30" as="geometry" />
        </mxCell>
        <mxCell id="Fp7a3wf5ypDkZVI3N4Gd-82" value="place recognition regime" style="text;html=1;strokeColor=none;fillColor=none;align=center;verticalAlign=middle;whiteSpace=wrap;rounded=0;" parent="1" vertex="1">
          <mxGeometry x="-1878.25" y="2294" width="72.5" height="48" as="geometry" />
        </mxCell>
        <mxCell id="Fp7a3wf5ypDkZVI3N4Gd-85" style="edgeStyle=orthogonalEdgeStyle;rounded=0;orthogonalLoop=1;jettySize=auto;html=1;" parent="1" source="Fp7a3wf5ypDkZVI3N4Gd-83" target="Fp7a3wf5ypDkZVI3N4Gd-22" edge="1">
          <mxGeometry relative="1" as="geometry" />
        </mxCell>
        <mxCell id="Fp7a3wf5ypDkZVI3N4Gd-83" value="&lt;div&gt;Data Manager&lt;/div&gt;" style="rounded=0;whiteSpace=wrap;html=1;fillColor=#ffe6cc;strokeColor=#d79b00;" parent="1" vertex="1">
          <mxGeometry x="-2310" y="2177" width="100" height="70" as="geometry" />
        </mxCell>
        <mxCell id="Fp7a3wf5ypDkZVI3N4Gd-88" style="edgeStyle=orthogonalEdgeStyle;rounded=0;orthogonalLoop=1;jettySize=auto;html=1;" parent="1" source="Fp7a3wf5ypDkZVI3N4Gd-87" target="Fp7a3wf5ypDkZVI3N4Gd-46" edge="1">
          <mxGeometry relative="1" as="geometry" />
        </mxCell>
        <mxCell id="Fp7a3wf5ypDkZVI3N4Gd-87" value="Raw measurements" style="text;html=1;strokeColor=none;fillColor=none;align=center;verticalAlign=middle;whiteSpace=wrap;rounded=0;" parent="1" vertex="1">
          <mxGeometry x="-1731.25" y="2102" width="108" height="30" as="geometry" />
        </mxCell>
        <mxCell id="KpYmoEpn27h0bMTAHkpe-8" style="edgeStyle=orthogonalEdgeStyle;rounded=0;orthogonalLoop=1;jettySize=auto;html=1;entryX=0.004;entryY=0.474;entryDx=0;entryDy=0;entryPerimeter=0;" parent="1" source="KpYmoEpn27h0bMTAHkpe-1" target="Sj2925MPbV6JyILS4WiL-5" edge="1">
          <mxGeometry relative="1" as="geometry" />
        </mxCell>
        <mxCell id="KpYmoEpn27h0bMTAHkpe-1" value="" style="rounded=1;whiteSpace=wrap;html=1;fillColor=none;" parent="1" vertex="1">
          <mxGeometry x="-1669" y="220.5" width="236.5" height="95.5" as="geometry" />
        </mxCell>
        <mxCell id="KpYmoEpn27h0bMTAHkpe-5" value="" style="shape=curlyBracket;whiteSpace=wrap;html=1;rounded=1;labelPosition=left;verticalLabelPosition=middle;align=right;verticalAlign=middle;rotation=-90;" parent="1" vertex="1">
          <mxGeometry x="-1559" y="215" width="20" height="231.75" as="geometry" />
        </mxCell>
        <mxCell id="KpYmoEpn27h0bMTAHkpe-6" value="Optional*" style="text;html=1;strokeColor=none;fillColor=none;align=center;verticalAlign=middle;whiteSpace=wrap;rounded=0;" parent="1" vertex="1">
          <mxGeometry x="-1579" y="335" width="60" height="30" as="geometry" />
        </mxCell>
        <mxCell id="KpYmoEpn27h0bMTAHkpe-11" value="&lt;b&gt;&lt;font style=&quot;font-size: 17px;&quot;&gt;Data Manager&lt;/font&gt;&lt;/b&gt;" style="text;html=1;strokeColor=none;fillColor=none;align=center;verticalAlign=middle;whiteSpace=wrap;rounded=0;" parent="1" vertex="1">
          <mxGeometry x="-1635" y="55.75" width="123.5" height="33" as="geometry" />
        </mxCell>
        <mxCell id="KpYmoEpn27h0bMTAHkpe-15" value="&lt;b&gt;&lt;font style=&quot;font-size: 17px;&quot;&gt;Frontend Manager&lt;/font&gt;&lt;/b&gt;" style="text;html=1;strokeColor=none;fillColor=none;align=center;verticalAlign=middle;whiteSpace=wrap;rounded=0;" parent="1" vertex="1">
          <mxGeometry x="-1146" y="55.75" width="152" height="33" as="geometry" />
        </mxCell>
        <mxCell id="KpYmoEpn27h0bMTAHkpe-17" value="&lt;b&gt;&lt;font style=&quot;font-size: 17px;&quot;&gt;Backend Manager&lt;/font&gt;&lt;/b&gt;" style="text;html=1;strokeColor=none;fillColor=none;align=center;verticalAlign=middle;whiteSpace=wrap;rounded=0;" parent="1" vertex="1">
          <mxGeometry x="-785" y="93.25" width="152" height="33" as="geometry" />
        </mxCell>
        <mxCell id="KpYmoEpn27h0bMTAHkpe-19" value="&lt;b&gt;&lt;font style=&quot;font-size: 17px;&quot;&gt;Map Manager&lt;/font&gt;&lt;/b&gt;" style="text;html=1;strokeColor=none;fillColor=none;align=center;verticalAlign=middle;whiteSpace=wrap;rounded=0;" parent="1" vertex="1">
          <mxGeometry x="-577" y="149" width="152" height="33" as="geometry" />
        </mxCell>
        <mxCell id="KpYmoEpn27h0bMTAHkpe-20" value="Data processor" style="rounded=0;whiteSpace=wrap;html=1;" parent="1" vertex="1">
          <mxGeometry x="-1698.38" y="1383" width="95" height="15" as="geometry" />
        </mxCell>
        <mxCell id="HoDFv_qUpZ7LxNlIAZH2-1" value="&lt;font color=&quot;#ea6b66&quot; style=&quot;font-size: 16px;&quot;&gt;What should be done to finish DataManager v 0.0.1&lt;/font&gt;" style="swimlane;fontStyle=0;childLayout=stackLayout;horizontal=1;startSize=30;horizontalStack=0;resizeParent=1;resizeParentMax=0;resizeLast=0;collapsible=1;marginBottom=0;whiteSpace=wrap;html=1;" parent="1" vertex="1">
          <mxGeometry x="-2274" y="2594" width="570" height="150" as="geometry" />
        </mxCell>
        <mxCell id="HoDFv_qUpZ7LxNlIAZH2-2" value="1) Memory Analyzer tests" style="text;strokeColor=none;fillColor=none;align=left;verticalAlign=middle;spacingLeft=4;spacingRight=4;overflow=hidden;points=[[0,0.5],[1,0.5]];portConstraint=eastwest;rotatable=0;whiteSpace=wrap;html=1;" parent="HoDFv_qUpZ7LxNlIAZH2-1" vertex="1">
          <mxGeometry y="30" width="570" height="30" as="geometry" />
        </mxCell>
        <mxCell id="HoDFv_qUpZ7LxNlIAZH2-7" value="2) All Fucntions description" style="text;strokeColor=none;fillColor=none;align=left;verticalAlign=middle;spacingLeft=4;spacingRight=4;overflow=hidden;points=[[0,0.5],[1,0.5]];portConstraint=eastwest;rotatable=0;whiteSpace=wrap;html=1;" parent="HoDFv_qUpZ7LxNlIAZH2-1" vertex="1">
          <mxGeometry y="60" width="570" height="30" as="geometry" />
        </mxCell>
        <mxCell id="HoDFv_qUpZ7LxNlIAZH2-9" value="3) Tests for new make_batch regime&amp;nbsp;" style="text;strokeColor=none;fillColor=none;align=left;verticalAlign=middle;spacingLeft=4;spacingRight=4;overflow=hidden;points=[[0,0.5],[1,0.5]];portConstraint=eastwest;rotatable=0;whiteSpace=wrap;html=1;" parent="HoDFv_qUpZ7LxNlIAZH2-1" vertex="1">
          <mxGeometry y="90" width="570" height="30" as="geometry" />
        </mxCell>
        <mxCell id="HoDFv_qUpZ7LxNlIAZH2-17" value="4) Tests for: main data flow -&amp;gt; batch from measurements -&amp;gt; main data flow" style="text;strokeColor=none;fillColor=none;align=left;verticalAlign=middle;spacingLeft=4;spacingRight=4;overflow=hidden;points=[[0,0.5],[1,0.5]];portConstraint=eastwest;rotatable=0;whiteSpace=wrap;html=1;" parent="HoDFv_qUpZ7LxNlIAZH2-1" vertex="1">
          <mxGeometry y="120" width="570" height="30" as="geometry" />
        </mxCell>
        <mxCell id="HoDFv_qUpZ7LxNlIAZH2-11" value="&lt;font color=&quot;#ea6b66&quot; style=&quot;font-size: 16px;&quot;&gt;What tools are missing in Data Manager ?&lt;/font&gt;" style="swimlane;fontStyle=0;childLayout=stackLayout;horizontal=1;startSize=30;horizontalStack=0;resizeParent=1;resizeParentMax=0;resizeLast=0;collapsible=1;marginBottom=0;whiteSpace=wrap;html=1;" parent="1" vertex="1">
          <mxGeometry x="-2275.88" y="2831" width="570" height="180" as="geometry" />
        </mxCell>
        <mxCell id="HoDFv_qUpZ7LxNlIAZH2-12" value="1) Any filtration of data batch" style="text;strokeColor=none;fillColor=none;align=left;verticalAlign=middle;spacingLeft=4;spacingRight=4;overflow=hidden;points=[[0,0.5],[1,0.5]];portConstraint=eastwest;rotatable=0;whiteSpace=wrap;html=1;" parent="HoDFv_qUpZ7LxNlIAZH2-11" vertex="1">
          <mxGeometry y="30" width="570" height="30" as="geometry" />
        </mxCell>
        <mxCell id="HoDFv_qUpZ7LxNlIAZH2-13" value="2) Dump data batch to file or somewhere&amp;nbsp;" style="text;strokeColor=none;fillColor=none;align=left;verticalAlign=middle;spacingLeft=4;spacingRight=4;overflow=hidden;points=[[0,0.5],[1,0.5]];portConstraint=eastwest;rotatable=0;whiteSpace=wrap;html=1;" parent="HoDFv_qUpZ7LxNlIAZH2-11" vertex="1">
          <mxGeometry y="60" width="570" height="30" as="geometry" />
        </mxCell>
        <mxCell id="HoDFv_qUpZ7LxNlIAZH2-14" value="3) make_batch (dict {Sensor_type, range of measurements})" style="text;strokeColor=none;fillColor=none;align=left;verticalAlign=middle;spacingLeft=4;spacingRight=4;overflow=hidden;points=[[0,0.5],[1,0.5]];portConstraint=eastwest;rotatable=0;whiteSpace=wrap;html=1;" parent="HoDFv_qUpZ7LxNlIAZH2-11" vertex="1">
          <mxGeometry y="90" width="570" height="30" as="geometry" />
        </mxCell>
        <mxCell id="HoDFv_qUpZ7LxNlIAZH2-15" value="4) Tests for new make_batch regime&amp;nbsp;" style="text;strokeColor=none;fillColor=none;align=left;verticalAlign=middle;spacingLeft=4;spacingRight=4;overflow=hidden;points=[[0,0.5],[1,0.5]];portConstraint=eastwest;rotatable=0;whiteSpace=wrap;html=1;" parent="HoDFv_qUpZ7LxNlIAZH2-11" vertex="1">
          <mxGeometry y="120" width="570" height="30" as="geometry" />
        </mxCell>
        <mxCell id="HoDFv_qUpZ7LxNlIAZH2-16" value="5) Some other tests?" style="text;strokeColor=none;fillColor=none;align=left;verticalAlign=middle;spacingLeft=4;spacingRight=4;overflow=hidden;points=[[0,0.5],[1,0.5]];portConstraint=eastwest;rotatable=0;whiteSpace=wrap;html=1;" parent="HoDFv_qUpZ7LxNlIAZH2-11" vertex="1">
          <mxGeometry y="150" width="570" height="30" as="geometry" />
        </mxCell>
        <mxCell id="iqSWQIKPsEfug9fX-E3l-5" style="edgeStyle=orthogonalEdgeStyle;rounded=0;orthogonalLoop=1;jettySize=auto;html=1;entryX=0;entryY=0.5;entryDx=0;entryDy=0;" parent="1" source="iqSWQIKPsEfug9fX-E3l-1" target="KpYmoEpn27h0bMTAHkpe-9" edge="1">
          <mxGeometry relative="1" as="geometry" />
        </mxCell>
        <mxCell id="iqSWQIKPsEfug9fX-E3l-1" value="" style="rounded=1;whiteSpace=wrap;html=1;fillColor=none;strokeColor=#FFFF66;gradientDirection=north;" parent="1" vertex="1">
          <mxGeometry x="-2257.26" y="220.5" width="298.88" height="97" as="geometry" />
        </mxCell>
        <mxCell id="iqSWQIKPsEfug9fX-E3l-2" value="Sensor Factory" style="rounded=0;whiteSpace=wrap;html=1;fillColor=#fff2cc;strokeColor=#d6b656;" parent="1" vertex="1">
          <mxGeometry x="-2098.3300000000004" y="249" width="109.88" height="40" as="geometry" />
        </mxCell>
        <mxCell id="iqSWQIKPsEfug9fX-E3l-3" value="Config &lt;br&gt;(Hydra)" style="rounded=0;whiteSpace=wrap;html=1;fillColor=#fff2cc;strokeColor=#d6b656;" parent="1" vertex="1">
          <mxGeometry x="-2244.9500000000003" y="250.5" width="109.88" height="40" as="geometry" />
        </mxCell>
        <mxCell id="iqSWQIKPsEfug9fX-E3l-4" value="&lt;b&gt;&lt;font style=&quot;font-size: 17px;&quot;&gt;Setup Manager&lt;/font&gt;&lt;/b&gt;" style="text;html=1;strokeColor=none;fillColor=none;align=center;verticalAlign=middle;whiteSpace=wrap;rounded=0;" parent="1" vertex="1">
          <mxGeometry x="-2160" y="182" width="127" height="33" as="geometry" />
        </mxCell>
      </root>
    </mxGraphModel>
  </diagram>
</mxfile>
